<svg id="Layer_1" data-name="Layer 1" xmlns="http://www.w3.org/2000/svg" xmlns:xlink="http://www.w3.org/1999/xlink" viewBox="0 0 61.89 70"><defs><style>.cls-1,.cls-2{fill:none;}.cls-2{clip-rule:evenodd;}.cls-3{clip-path:url(#clip-path);}.cls-4{clip-path:url(#clip-path-2);}.cls-5{isolation:isolate;}.cls-6{clip-path:url(#clip-path-3);}.cls-7{clip-path:url(#clip-path-4);}.cls-8{fill:#fff;}.cls-9{clip-path:url(#clip-path-6);}.cls-10{clip-path:url(#clip-path-8);}</style><clipPath id="clip-path" transform="translate(5 5)"><rect class="cls-1" width="51.89" height="60"/></clipPath><clipPath id="clip-path-2" transform="translate(5 5)"><rect class="cls-1" x="-716" y="-5281" width="1366" height="5707"/></clipPath><clipPath id="clip-path-3" transform="translate(5 5)"><rect class="cls-1" width="52" height="60"/></clipPath><clipPath id="clip-path-4" transform="translate(5 5)"><path class="cls-2" d="M27.79,8V3.69h3.64a1.85,1.85,0,0,0,0-3.69h-11a1.85,1.85,0,0,0,0,3.69H24.1V8a25.95,25.95,0,1,0,3.69,0M25.94,56.31A22.33,22.33,0,1,1,48.21,34,22.32,22.32,0,0,1,25.94,56.31"/></clipPath><clipPath id="clip-path-6" transform="translate(5 5)"><path class="cls-2" d="M23.41,40.73H15.32c0-.93.22-1.36,4.79-4.32C22.76,34.7,25,32.31,25,29.27,25,25.45,21.54,23,17.64,23c-5.33,0-7.68,3.93-7.24,6.41.54,3.05,5,2.09,5,.13,0-3,4.5-2.72,4.5-.12,0,1.42-1.31,2.73-4.88,5.16-5.68,3.87-5,5-5,8.88,0,1,1.39,1.54,2.24,1.54H23.41c2,0,2.14-4.27,0-4.27"/></clipPath><clipPath id="clip-path-8" transform="translate(5 5)"><path class="cls-2" d="M39.49,35.9H38.32v-2c0-2-4.83-2-4.83,0v2H31.21l5.18-10.43c.84-2-3-3.71-4.28-1.23l-6.85,13.5a1.71,1.71,0,0,0,1.4,2.67h6.83v3.05c0,2.06,4.83,2,4.83,0V40.41h1.17c1.89,0,2.13-4.51,0-4.51"/></clipPath></defs><title>24H</title><g class="cls-3"><g class="cls-4"><g class="cls-5"><g class="cls-6"><g class="cls-7"><g class="cls-6"><rect class="cls-8" width="61.89" height="70"/></g></g></g></g></g></g><g class="cls-9"><g class="cls-4"><rect class="cls-8" x="10" y="23" width="25" height="32"/></g></g><g class="cls-10"><g class="cls-4"><rect class="cls-8" x="25" y="23" width="26" height="32"/></g></g></svg>