<svg id="Calque_1" data-name="Calque 1" xmlns="http://www.w3.org/2000/svg" xmlns:xlink="http://www.w3.org/1999/xlink" viewBox="0 0 55.04 56.96"><defs><style>.cls-1,.cls-15,.cls-18,.cls-2{fill:none;}.cls-1{clip-rule:evenodd;}.cls-3{clip-path:url(#clip-path);}.cls-4{clip-path:url(#clip-path-2);}.cls-5{isolation:isolate;}.cls-6{clip-path:url(#clip-path-3);}.cls-7{clip-path:url(#clip-path-4);}.cls-8{clip-path:url(#clip-path-5);}.cls-9{fill:#e96543;}.cls-10{clip-path:url(#clip-path-6);}.cls-11{clip-path:url(#clip-path-8);}.cls-12{clip-path:url(#clip-path-9);}.cls-13{clip-path:url(#clip-path-10);}.cls-14{fill:#fff;}.cls-15{stroke:#20294c;stroke-width:2px;}.cls-15,.cls-18{stroke-miterlimit:10;}.cls-16{clip-path:url(#clip-path-12);}.cls-17{fill:#20284d;}.cls-18{stroke:#20284d;}.cls-19{clip-path:url(#clip-path-15);}.cls-20{clip-path:url(#clip-path-18);}.cls-21{clip-path:url(#clip-path-21);}.cls-22{clip-path:url(#clip-path-24);}</style><clipPath id="clip-path" transform="translate(8.58 7.98)"><path class="cls-1" d="M.45,21.69a18.5,18.5,0,0,0,37,0A18.4,18.4,0,0,0,19,3.39,18.4,18.4,0,0,0,.45,21.69Z"/></clipPath><clipPath id="clip-path-2" transform="translate(8.58 7.98)"><rect class="cls-2" x="-0.55" width="40" height="41"/></clipPath><clipPath id="clip-path-3" transform="translate(8.58 7.98)"><rect class="cls-2" x="-4.55" y="-1" width="47" height="45"/></clipPath><clipPath id="clip-path-4" transform="translate(8.58 7.98)"><rect class="cls-2" x="-3.58" y="-0.59" width="45.04" height="44.57"/></clipPath><clipPath id="clip-path-5" transform="translate(8.58 7.98)"><rect class="cls-2" x="0.45" y="3" width="37" height="37"/></clipPath><clipPath id="clip-path-6" transform="translate(8.58 7.98)"><ellipse class="cls-2" cx="19.35" cy="18.91" rx="18.1" ry="17.91"/></clipPath><clipPath id="clip-path-8" transform="translate(8.58 7.98)"><rect class="cls-2" x="-3.55" y="-3" width="46" height="44"/></clipPath><clipPath id="clip-path-9" transform="translate(8.58 7.98)"><rect class="cls-2" x="-2.77" y="-2.98" width="44.24" height="43.78"/></clipPath><clipPath id="clip-path-10" transform="translate(8.58 7.98)"><rect class="cls-2" x="0.45" y="1" width="37" height="36"/></clipPath><clipPath id="clip-path-12" transform="translate(8.58 7.98)"><path class="cls-1" d="M29.53,19.52a.55.55,0,0,0-.76-.08.53.53,0,0,0-.09.73.62.62,0,0,1,0,.77,11.7,11.7,0,0,1-4.93,3.68,5.89,5.89,0,0,0,0-8.11,11.68,11.68,0,0,1,3.07,1.8c.07.05.66.61,1.16,1.12.34.35.63.7.68.74.22.2-.1-.52.09-.74s1,.28.76.09c-.06-.05-.42-.46-.85-.9s-1.09-1.08-1.16-1.13A13,13,0,0,0,9.38,19.28l-.2.24a1.68,1.68,0,0,0,0,2.08,13,13,0,0,0,18.1,2.22,12.39,12.39,0,0,0,2.24-2.22A1.67,1.67,0,0,0,29.53,19.52ZM10,20.94a.62.62,0,0,1,0-.77A11.79,11.79,0,0,1,15,16.5a5.9,5.9,0,0,0,0,8.12A11.73,11.73,0,0,1,10,20.94Zm9.33,4.51h0a4.9,4.9,0,1,1,0-9.79h0a4.9,4.9,0,1,1,0,9.79Z"/></clipPath><clipPath id="clip-path-15" transform="translate(8.58 7.98)"><path class="cls-1" d="M19.36,18.3a2.26,2.26,0,1,0,2.27,2.26,2.27,2.27,0,0,0-2.27-2.26m0,3.45a1.19,1.19,0,1,1,1.2-1.19,1.2,1.2,0,0,1-1.2,1.19"/></clipPath><clipPath id="clip-path-18" transform="translate(8.58 7.98)"><path class="cls-1" d="M19.35,9.43a.53.53,0,0,0-.53.53v2a.54.54,0,0,0,1.07,0V10a.53.53,0,0,0-.54-.53"/></clipPath><clipPath id="clip-path-21" transform="translate(8.58 7.98)"><path class="cls-1" d="M27.31,12.69a.54.54,0,0,0-.76,0l-1,1a.53.53,0,0,0,.05.75.56.56,0,0,0,.71,0l1-1a.51.51,0,0,0,0-.74"/></clipPath><clipPath id="clip-path-24" transform="translate(8.58 7.98)"><path class="cls-1" d="M13.16,13.68l-1-1a.55.55,0,0,0-.76-.06.53.53,0,0,0-.05.75l.05.06,1,1a.55.55,0,0,0,.76.05.54.54,0,0,0,.05-.75l-.05-.05Z"/></clipPath></defs><title>ICONE_VOIR</title><g class="cls-3"><g class="cls-4"><g class="cls-5"><g class="cls-6"><g class="cls-7"><g class="cls-8"><rect class="cls-9" y="2.39" width="55.04" height="54.57"/></g></g></g></g></g></g><g class="cls-10"><g class="cls-4"><g class="cls-5"><g class="cls-11"><g class="cls-12"><g class="cls-13"><rect class="cls-14" x="0.8" width="54.24" height="53.78"/></g></g></g></g></g></g><g class="cls-4"><path class="cls-15" d="M19.35,1h0a18,18,0,0,1,18.1,17.91,18.1,18.1,0,0,1-36.2,0A18,18,0,0,1,19.35,1Z" transform="translate(8.58 7.98)"/></g><g class="cls-16"><g class="cls-4"><rect class="cls-17" x="12.39" y="17.58" width="31.07" height="21.92"/></g></g><g class="cls-4"><path class="cls-18" d="M29.53,19.52a.55.55,0,0,0-.76-.08.53.53,0,0,0-.09.73.62.62,0,0,1,0,.77,11.7,11.7,0,0,1-4.93,3.68,5.89,5.89,0,0,0,0-8.11,11.68,11.68,0,0,1,3.07,1.8c.07.05.66.61,1.16,1.12.34.35.63.7.68.74.22.2-.1-.52.09-.74s1,.28.76.09c-.06-.05-.42-.46-.85-.9s-1.09-1.08-1.16-1.13A13,13,0,0,0,9.38,19.28l-.2.24a1.68,1.68,0,0,0,0,2.08,13,13,0,0,0,18.1,2.22,12.39,12.39,0,0,0,2.24-2.22A1.67,1.67,0,0,0,29.53,19.52ZM10,20.94a.62.62,0,0,1,0-.77A11.79,11.79,0,0,1,15,16.5a5.9,5.9,0,0,0,0,8.12A11.73,11.73,0,0,1,10,20.94Zm9.33,4.51h0a4.9,4.9,0,1,1,0-9.79h0a4.9,4.9,0,1,1,0,9.79Z" transform="translate(8.58 7.98)"/></g><g class="cls-19"><g class="cls-4"><rect class="cls-17" x="20.65" y="21.28" width="14.56" height="14.51"/></g></g><g class="cls-4"><path class="cls-18" d="M19.36,18.3a2.26,2.26,0,1,0,2.27,2.26A2.27,2.27,0,0,0,19.36,18.3Zm0,3.45a1.19,1.19,0,1,1,1.2-1.19A1.2,1.2,0,0,1,19.36,21.75Z" transform="translate(8.58 7.98)"/></g><g class="cls-20"><g class="cls-4"><rect class="cls-17" x="22.39" y="12.41" width="11.07" height="13.05"/></g></g><g class="cls-4"><path class="cls-18" d="M19.35,9.43a.53.53,0,0,0-.53.53v2a.54.54,0,0,0,1.07,0V10A.53.53,0,0,0,19.35,9.43Z" transform="translate(8.58 7.98)"/></g><g class="cls-21"><g class="cls-4"><rect class="cls-17" x="28.99" y="15.51" width="12.05" height="12.02"/></g></g><g class="cls-4"><path class="cls-18" d="M27.31,12.69a.54.54,0,0,0-.76,0l-1,1a.53.53,0,0,0,.05.75.56.56,0,0,0,.71,0l1-1A.51.51,0,0,0,27.31,12.69Z" transform="translate(8.58 7.98)"/></g><g class="cls-22"><g class="cls-4"><rect class="cls-17" x="14.79" y="15.48" width="12.12" height="12.11"/></g></g><g class="cls-4"><path class="cls-18" d="M13.16,13.68l-1-1a.55.55,0,0,0-.76-.06.53.53,0,0,0-.05.75l.05.06,1,1a.55.55,0,0,0,.76.05.54.54,0,0,0,.05-.75l-.05-.05Z" transform="translate(8.58 7.98)"/></g></svg>