<svg id="Layer_1" data-name="Layer 1" xmlns="http://www.w3.org/2000/svg" viewBox="0 0 78.84 62.46"><defs><style>.cls-1{fill:#1b264f;}</style></defs><title>LOG_OUT</title><path class="cls-1" d="M66.71,21.71,46,4.17a18.55,18.55,0,0,0-23.43,0L1.77,21.71a5,5,0,0,0,4.74,8.58V51.42a11.06,11.06,0,0,0,10.8,11H51.19A11.06,11.06,0,0,0,62,51.42v-.64H57v.64a6,6,0,0,1-5.78,6V50.09h-5v7.37H22.31V40.6A11.94,11.94,0,0,1,45.2,35.85h5.31a16.94,16.94,0,0,0-33.2,4.75V57.45a6,6,0,0,1-5.8-6V26.58L29,11.8a8.67,8.67,0,0,1,10.52,0L57,26.57v9.28h5V30.29a4.87,4.87,0,0,0,1.51.24,5,5,0,0,0,3.23-8.82Z"/><rect class="cls-1" x="34.24" y="39.88" width="44.6" height="6.18" rx="3.09"/><rect class="cls-1" x="64.3" y="36.42" width="15.98" height="6.18" rx="3.09" transform="translate(49.11 -39.55) rotate(45)"/><rect class="cls-1" x="64.3" y="43.35" width="15.98" height="6.18" rx="3.09" transform="translate(-11.66 64.72) rotate(-45)"/></svg>