<svg id="Layer_1" data-name="Layer 1" xmlns="http://www.w3.org/2000/svg" xmlns:xlink="http://www.w3.org/1999/xlink" viewBox="0 0 167.57 82.35"><defs><style>.cls-1,.cls-11,.cls-2,.cls-6,.cls-8{fill:none;}.cls-1{clip-rule:evenodd;}.cls-3{clip-path:url(#clip-path);}.cls-4{clip-path:url(#clip-path-2);}.cls-5{fill:#eb6543;}.cls-11,.cls-6,.cls-8{stroke:#20294d;stroke-linecap:round;stroke-linejoin:round;}.cls-6{stroke-width:5px;}.cls-7{clip-path:url(#clip-path-4);}.cls-9{clip-path:url(#clip-path-7);}.cls-10{fill:#20294c;}.cls-11{stroke-width:3px;}.cls-12{clip-path:url(#clip-path-10);}.cls-13{fill:#20294d;}</style><clipPath id="clip-path" transform="translate(-0.84 -0.84)"><path class="cls-1" d="M96.85,56.58V66a12.25,12.25,0,0,1-24.5,0V56.58"/></clipPath><clipPath id="clip-path-2" transform="translate(-0.84 -0.84)"><rect class="cls-2" width="169" height="82"/></clipPath><clipPath id="clip-path-4" transform="translate(-0.84 -0.84)"><path class="cls-1" d="M96.87,56.58V66a12.25,12.25,0,0,1-24.5,0V56.58L79,52.32l4.89-8.15,1-2.32,5.86,12.38Z"/></clipPath><clipPath id="clip-path-7" transform="translate(-0.84 -0.84)"><path class="cls-1" d="M90.74,29.4c0,1.64-2.74,3-6.12,3s-6.11-1.33-6.11-3,2.73-3,6.11-3,6.12,1.33,6.12,3"/></clipPath><clipPath id="clip-path-10" transform="translate(-0.84 -0.84)"><path class="cls-1" d="M112.17,21.63a5,5,0,1,1-5-5,5,5,0,0,1,5,5"/></clipPath></defs><title>LOGO COULEUR</title><g class="cls-3"><g class="cls-4"><rect class="cls-5" x="66.51" y="50.74" width="34.5" height="31.61"/></g></g><g class="cls-4"><path class="cls-6" d="M96.85,56.58V66a12.25,12.25,0,0,1-24.5,0V56.58" transform="translate(-0.84 -0.84)"/></g><g class="cls-7"><g class="cls-4"><rect class="cls-5" x="66.53" y="36.02" width="34.5" height="46.34"/></g></g><g class="cls-4"><path class="cls-8" d="M96.87,56.58V66a12.25,12.25,0,0,1-24.5,0V56.58L79,52.32l4.89-8.15,1-2.32,5.86,12.38Z" transform="translate(-0.84 -0.84)"/><path class="cls-6" d="M47.84,46.1a19.13,19.13,0,0,0,36.78-7.36" transform="translate(-0.84 -0.84)"/><path class="cls-6" d="M84.62,38.74h0a19.14,19.14,0,0,0,36.79,7.36" transform="translate(-0.84 -0.84)"/></g><g class="cls-9"><g class="cls-4"><rect class="cls-10" x="72.67" y="20.6" width="22.23" height="15.92"/></g></g><g class="cls-4"><ellipse class="cls-6" cx="83.78" cy="28.57" rx="6.12" ry="2.96"/><line class="cls-11" x1="83.78" y1="45.41" x2="83.78" y2="62.94"/><path class="cls-6" d="M131.85,41.54a8.52,8.52,0,0,1,17,0V57.85" transform="translate(-0.84 -0.84)"/><path class="cls-6" d="M114.82,41.54a8.52,8.52,0,0,1,17,0,27.14,27.14,0,0,1-2.64,11.9" transform="translate(-0.84 -0.84)"/><path class="cls-6" d="M148.88,51.48V41.54a8.52,8.52,0,0,1,17,0V64.87" transform="translate(-0.84 -0.84)"/><path class="cls-6" d="M20.37,57.85V41.54a8.52,8.52,0,0,1,17,0" transform="translate(-0.84 -0.84)"/><path class="cls-6" d="M40,53.44a27.28,27.28,0,0,1-2.63-11.9,8.5,8.5,0,0,1,14.52-6,8.45,8.45,0,0,1,2.5,6" transform="translate(-0.84 -0.84)"/><path class="cls-6" d="M3.34,41.54a8.52,8.52,0,0,1,17,0v9.94" transform="translate(-0.84 -0.84)"/></g><g class="cls-12"><g class="cls-4"><rect class="cls-13" x="96.39" y="10.83" width="19.94" height="19.93"/></g></g><g class="cls-4"><path class="cls-6" d="M116,24.43a8.75,8.75,0,1,1-8.75-8.74A8.75,8.75,0,0,1,116,24.43Z" transform="translate(-0.84 -0.84)"/><path class="cls-6" d="M124.69,33.17A8.74,8.74,0,0,1,116,24.43V12.08h0a8.75,8.75,0,0,0-17.5,0" transform="translate(-0.84 -0.84)"/></g></svg>