<svg id="Layer_1" data-name="Layer 1" xmlns="http://www.w3.org/2000/svg" xmlns:xlink="http://www.w3.org/1999/xlink" viewBox="0 0 101.83 35.27"><defs><style>.cls-1,.cls-2{fill:none;}.cls-1{clip-rule:evenodd;}.cls-3{clip-path:url(#clip-path);}.cls-4{clip-path:url(#clip-path-2);}.cls-5{fill:#fefefe;}.cls-6{clip-path:url(#clip-path-3);}.cls-7{clip-path:url(#clip-path-5);}.cls-8{clip-path:url(#clip-path-7);}.cls-9{clip-path:url(#clip-path-9);}.cls-10{clip-path:url(#clip-path-11);}.cls-11{clip-path:url(#clip-path-13);}.cls-12{clip-path:url(#clip-path-15);}.cls-13{clip-path:url(#clip-path-17);}.cls-14{clip-path:url(#clip-path-19);}.cls-15{clip-path:url(#clip-path-21);}.cls-16{clip-path:url(#clip-path-23);}.cls-17{clip-path:url(#clip-path-25);}.cls-18{clip-path:url(#clip-path-27);}.cls-19{clip-path:url(#clip-path-29);}.cls-20{clip-path:url(#clip-path-31);}.cls-21{clip-path:url(#clip-path-33);}.cls-22{clip-path:url(#clip-path-35);}.cls-23{clip-path:url(#clip-path-37);}.cls-24{clip-path:url(#clip-path-39);}</style><clipPath id="clip-path" transform="translate(5 5)"><path class="cls-1" d="M71.69,4.46a25.49,25.49,0,0,0-5.56.89l-.45,3.42a20,20,0,0,1,4.66-1c1.8,0,2.85.3,2.55,1.93-5.41,0-9,1-9.77,4.61-1,5.95,5.57,6.1,8.12,3.42l-.3,1.64h4.81l2.1-9.67C78.61,5.65,75,4.31,71.69,4.46Zm.3,10c-.3,1.19-1.35,1.64-2.55,1.78-1,0-2-.59-1.36-1.78.61-.89,2-.89,3-.89h1.2c-.15-.15-.3.45-.3.89Z"/></clipPath><clipPath id="clip-path-2" transform="translate(5 5)"><rect class="cls-2" width="92" height="26"/></clipPath><clipPath id="clip-path-3" transform="translate(5 5)"><path class="cls-1" d="M65.68,8.77a20,20,0,0,1,4.66-1c1.8,0,2.86.3,2.55,1.93-5.41,0-9,1-9.76,4.61-1.06,5.95,5.56,6.1,8.11,3.42l-.3,1.63h4.81l2.1-9.66c.9-4-2.85-5-6.16-5ZM72,14.42c-.3,1.19-1.35,1.63-2.55,1.78s-2-.59-1.36-1.78c.6-.89,2-.89,3-.89h1.2c-.15-.15-.3.45-.3.89Z"/></clipPath><clipPath id="clip-path-5" transform="translate(5 5)"><polygon class="cls-1" points="81.91 0 78 19.33 82.81 19.33 86.87 0 81.91 0"/></clipPath><clipPath id="clip-path-7" transform="translate(5 5)"><polygon class="cls-1" points="85.37 0 78 19.33 82.81 19.33 86.87 0 85.37 0"/></clipPath><clipPath id="clip-path-9" transform="translate(5 5)"><path class="cls-1" d="M59.52,0H50.65L46.74,19.33H52l1.35-5.95h3.76a7.11,7.11,0,0,0,7.36-5.8C65.23,3.27,62.08,0,59.52,0m-.15,6.69a3.07,3.07,0,0,1-3,2.23H54l1-4.46h2.55a1.69,1.69,0,0,1,1.89,1.47,1.77,1.77,0,0,1-.08.76"/></clipPath><clipPath id="clip-path-11" transform="translate(5 5)"><path class="cls-1" d="M59.52,0h-6L46.59,19.33h5.26l1.35-5.95H57a7.12,7.12,0,0,0,7.36-5.8C65.23,3.27,62.07,0,59.52,0Zm-.15,6.69a3.07,3.07,0,0,1-3,2.23H54l1-4.46h2.55a1.69,1.69,0,0,1,1.89,1.47,1.77,1.77,0,0,1-.08.76Z"/></clipPath><clipPath id="clip-path-13" transform="translate(5 5)"><path class="cls-1" d="M24.8,4.46a23.08,23.08,0,0,0-5.41.89l-.45,3.42a18.09,18.09,0,0,1,4.66-1c1.8,0,2.85.3,2.55,1.93-5.25,0-8.87,1-9.62,4.61-1.05,5.95,5.41,6.1,8,3.42l-.3,1.64H29l2.1-9.67C31.86,5.65,28.11,4.31,24.8,4.46Zm.45,10c-.3,1.19-1.35,1.64-2.55,1.78s-2-.59-1.21-1.78c.6-.89,2-.89,2.86-.89h1.2c-.15-.15-.3.45-.3.89Z"/></clipPath><clipPath id="clip-path-15" transform="translate(5 5)"><path class="cls-1" d="M19.09,8.77a18.09,18.09,0,0,1,4.66-1c1.8,0,2.85.3,2.55,1.93-5.25,0-8.87,1-9.62,4.61-1,5.95,5.41,6.1,8,3.42l-.45,1.63H29l2.1-9.66c.9-4-2.86-5-6.16-5Zm6.16,5.65c-.3,1.19-1.35,1.63-2.56,1.78-1.05,0-2-.59-1.2-1.78.6-.89,2-.89,2.86-.89h1.2c-.15-.15-.3.45-.3.89Z"/></clipPath><clipPath id="clip-path-17" transform="translate(5 5)"><polygon class="cls-1" points="33.06 4.46 37.87 4.46 38.62 12.79 43.43 4.46 48.39 4.46 36.97 25.27 31.56 25.27 35.02 19.03 33.06 4.46"/></clipPath><clipPath id="clip-path-19" transform="translate(5 5)"><polyline class="cls-1" points="37.87 4.76 38.62 12.93 43.43 4.46 48.39 4.46 36.97 25.27 31.56 25.27 35.02 19.18"/></clipPath><clipPath id="clip-path-21" transform="translate(5 5)"><path class="cls-1" d="M12.93,0h-9L0,19.33H5.26l1.35-5.95h3.76a7.12,7.12,0,0,0,7.36-5.8C18.64,3.27,15.48,0,12.93,0Zm-.16,6.69a3.06,3.06,0,0,1-3,2.23H7.36L8.42,4.46H11a1.7,1.7,0,0,1,1.89,1.47,1.77,1.77,0,0,1-.08.76Z"/></clipPath><clipPath id="clip-path-23" transform="translate(5 5)"><path class="cls-1" d="M12.93,0H8.87L0,19.33H5.26l1.35-5.95h3.76a7.12,7.12,0,0,0,7.36-5.8C18.64,3.27,15.48,0,12.93,0Zm-.16,6.69a3.06,3.06,0,0,1-3,2.23H7.36L8.42,4.46H11a1.7,1.7,0,0,1,1.89,1.47,1.77,1.77,0,0,1-.08.76Z"/></clipPath><clipPath id="clip-path-25" transform="translate(5 5)"><path class="cls-1" d="M23.9,9.66c-4.06.3-6.77,1.49-7.37,4.46-1.05,6,5.41,6.1,8,3.42l-.3,1.79H29l.75-3.57Zm1.35,4.76c-.3,1.19-1.35,1.64-2.56,1.78-1.05,0-2-.59-1.2-1.78.6-.89,2-.89,2.86-.89h1.2C25.4,13.38,25.25,14,25.25,14.42Z"/></clipPath><clipPath id="clip-path-27" transform="translate(5 5)"><polygon class="cls-1" points="38.93 12.63 38.63 13.08 41.78 16.05 48.4 4.46 43.44 4.46 38.93 12.63"/></clipPath><clipPath id="clip-path-29" transform="translate(5 5)"><polygon class="cls-1" points="5.26 19.33 6.61 13.38 0.45 19.33 5.26 19.33"/></clipPath><clipPath id="clip-path-31" transform="translate(5 5)"><polygon class="cls-1" points="51.85 19.32 53.21 13.08 53.21 13.23 47.04 19.32 51.85 19.32"/></clipPath><clipPath id="clip-path-33" transform="translate(5 5)"><path class="cls-1" d="M70.64,9.66c-4.06.3-6.76,1.49-7.36,4.46-1.06,6,5.56,6.1,8.11,3.42l-.45,1.79h4.81l.75-3.57ZM72,14.42c-.3,1.19-1.35,1.64-2.55,1.78-1,0-2-.59-1.35-1.78.6-.89,2-.89,3-.89h1.2C72.14,13.38,72,14,72,14.42Z"/></clipPath><clipPath id="clip-path-35" transform="translate(5 5)"><polygon class="cls-1" points="81.46 10.55 78 19.33 82.81 19.33 84.17 13.38 81.46 10.55"/></clipPath><clipPath id="clip-path-37" transform="translate(5 5)"><polygon class="cls-1" points="87.92 3.12 87.92 1.04 87.17 1.04 87.17 0.74 89.13 0.74 89.13 1.04 88.38 1.04 88.38 3.12 87.92 3.12"/></clipPath><clipPath id="clip-path-39" transform="translate(5 5)"><path class="cls-1" d="M89.43,3.12V.74h.45l.6,1.64a.57.57,0,0,0,.15.3c0-.15,0-.15.15-.45l.6-1.64h.45V3h-.3V.89L90.78,3h-.45L89.58.89V3h-.15Z"/></clipPath></defs><title>PAYPAL</title><g class="cls-3"><g class="cls-4"><rect class="cls-5" x="63.01" y="4.45" width="24.94" height="24.91"/></g></g><g class="cls-6"><g class="cls-4"><rect class="cls-5" x="63.01" y="4.61" width="24.98" height="24.75"/></g></g><g class="cls-7"><g class="cls-4"><rect class="cls-5" x="78" width="18.87" height="29.33"/></g></g><g class="cls-8"><g class="cls-4"><rect class="cls-5" x="78" width="18.87" height="29.33"/></g></g><g class="cls-9"><g class="cls-4"><rect class="cls-5" x="46.74" width="27.85" height="29.33"/></g></g><g class="cls-10"><g class="cls-4"><rect class="cls-5" x="46.59" width="27.89" height="29.33"/></g></g><g class="cls-11"><g class="cls-4"><rect class="cls-5" x="16.42" y="4.45" width="24.79" height="24.91"/></g></g><g class="cls-12"><g class="cls-4"><rect class="cls-5" x="16.57" y="4.61" width="24.68" height="24.75"/></g></g><g class="cls-13"><g class="cls-4"><rect class="cls-5" x="31.56" y="4.46" width="26.83" height="30.81"/></g></g><g class="cls-14"><g class="cls-4"><rect class="cls-5" x="31.56" y="4.46" width="26.83" height="30.81"/></g></g><g class="cls-15"><g class="cls-4"><rect class="cls-5" width="27.89" height="29.33"/></g></g><g class="cls-16"><g class="cls-4"><rect class="cls-5" width="27.89" height="29.33"/></g></g><g class="cls-17"><g class="cls-4"><rect class="cls-5" x="16.42" y="9.66" width="23.34" height="19.66"/></g></g><g class="cls-18"><g class="cls-4"><rect class="cls-5" x="38.63" y="4.46" width="19.77" height="21.6"/></g></g><g class="cls-19"><g class="cls-4"><rect class="cls-5" x="0.45" y="13.38" width="16.16" height="15.95"/></g></g><g class="cls-20"><g class="cls-4"><rect class="cls-5" x="47.04" y="13.08" width="16.16" height="16.24"/></g></g><g class="cls-21"><g class="cls-4"><rect class="cls-5" x="63.16" y="9.66" width="23.34" height="19.66"/></g></g><g class="cls-22"><g class="cls-4"><rect class="cls-5" x="78" y="10.56" width="16.16" height="18.77"/></g></g><g class="cls-23"><g class="cls-4"><rect class="cls-5" x="87.17" y="0.74" width="11.95" height="12.38"/></g></g><g class="cls-24"><g class="cls-4"><rect class="cls-5" x="89.43" y="0.59" width="12.41" height="12.53"/></g></g></svg>