<svg id="Layer_1" data-name="Layer 1" xmlns="http://www.w3.org/2000/svg" xmlns:xlink="http://www.w3.org/1999/xlink" viewBox="0 0 73.98 79.11"><defs><style>.cls-1,.cls-15,.cls-2{fill:none;}.cls-2{clip-rule:evenodd;}.cls-3{clip-path:url(#clip-path);}.cls-4{clip-path:url(#clip-path-2);}.cls-5{isolation:isolate;}.cls-6{clip-path:url(#clip-path-3);}.cls-7{clip-path:url(#clip-path-4);}.cls-8{fill:#eb6543;}.cls-9{clip-path:url(#clip-path-6);}.cls-10{clip-path:url(#clip-path-8);}.cls-11{clip-path:url(#clip-path-9);}.cls-12{fill:#fefefe;}.cls-13{clip-path:url(#clip-path-11);}.cls-14{fill:#fff;}.cls-15{stroke:#20284d;stroke-miterlimit:10;stroke-width:2px;}.cls-16{clip-path:url(#clip-path-14);}.cls-17{fill:#20284d;}</style><clipPath id="clip-path" transform="translate(4.98 4.23)"><rect class="cls-1" x="0.02" y="5.9" width="63.98" height="63.98"/></clipPath><clipPath id="clip-path-2" transform="translate(4.98 4.23)"><rect class="cls-1" width="64" height="70"/></clipPath><clipPath id="clip-path-3" transform="translate(4.98 4.23)"><rect class="cls-1" x="0.02" y="5.77" width="64" height="65"/></clipPath><clipPath id="clip-path-4" transform="translate(4.98 4.23)"><path class="cls-2" d="M32,5.9h0a32,32,0,1,1-32,32,32,32,0,0,1,32-32"/></clipPath><clipPath id="clip-path-6" transform="translate(4.98 4.23)"><rect class="cls-1" x="0.02" y="0.77" width="63.98" height="63.98"/></clipPath><clipPath id="clip-path-8" transform="translate(4.98 4.23)"><rect class="cls-1" x="0.02" y="0.77" width="64" height="64"/></clipPath><clipPath id="clip-path-9" transform="translate(4.98 4.23)"><path class="cls-2" d="M64,32.76a32,32,0,1,1-32-32A32,32,0,0,1,64,32.76Z"/></clipPath><clipPath id="clip-path-11" transform="translate(4.98 4.23)"><path class="cls-2" d="M32,1.77a31,31,0,1,1-31,31A31,31,0,0,1,32,1.77Z"/></clipPath><clipPath id="clip-path-14" transform="translate(4.98 4.23)"><path class="cls-2" d="M51.8,22.71a14,14,0,0,1-2.44.83,7.58,7.58,0,0,0,2-3.2.4.4,0,0,0-.26-.5.39.39,0,0,0-.32,0,14.13,14.13,0,0,1-3.73,1.54l-.23,0a1,1,0,0,1-.66-.25,7.64,7.64,0,0,0-5-1.9,8,8,0,0,0-2.42.38,7.34,7.34,0,0,0-5,5.32,8,8,0,0,0-.19,2.8.29.29,0,0,1-.06.22.3.3,0,0,1-.21.1h0a20,20,0,0,1-13.74-7.34.4.4,0,0,0-.56-.06.31.31,0,0,0-.09.11,7.62,7.62,0,0,0,1.24,9.26,6.81,6.81,0,0,1-1.74-.67.39.39,0,0,0-.54.16.37.37,0,0,0-.05.18,7.62,7.62,0,0,0,4.45,7h-.16a6.85,6.85,0,0,1-1.28-.12.4.4,0,0,0-.47.32.41.41,0,0,0,0,.19,7.64,7.64,0,0,0,6,5.2,14.11,14.11,0,0,1-7.88,2.4h-.89a.57.57,0,0,0-.57.44.58.58,0,0,0,.29.66,20.87,20.87,0,0,0,10.51,2.84,21.12,21.12,0,0,0,9-1.91,19.74,19.74,0,0,0,6.57-4.92,21.78,21.78,0,0,0,5.4-14.13v-.11a1.31,1.31,0,0,1,.48-1,15,15,0,0,0,3-3.33.39.39,0,0,0-.49-.58Z"/></clipPath></defs><title>TWITTER</title><g class="cls-3"><g class="cls-4"><g class="cls-5"><g class="cls-6"><g class="cls-7"><g class="cls-6"><rect class="cls-8" y="5.13" width="73.98" height="73.98"/></g></g></g></g></g></g><g class="cls-9"><g class="cls-4"><g class="cls-5"><g class="cls-10"><g class="cls-11"><g class="cls-10"><rect class="cls-12" width="73.98" height="73.98"/></g></g></g></g></g></g><g class="cls-13"><g class="cls-4"><rect class="cls-14" x="1" y="1" width="71.98" height="71.98"/></g></g><g class="cls-4"><path class="cls-15" d="M32,1.77a31,31,0,1,1-31,31A31,31,0,0,1,32,1.77Z" transform="translate(4.98 4.23)"/></g><g class="cls-16"><g class="cls-4"><rect class="cls-17" x="16.98" y="18.52" width="45.36" height="39.42"/></g></g></svg>