<svg id="Layer_1" data-name="Layer 1" xmlns="http://www.w3.org/2000/svg" xmlns:xlink="http://www.w3.org/1999/xlink" viewBox="0 0 78.54 31.78"><defs><style>.cls-1,.cls-2{fill:none;}.cls-1{clip-rule:evenodd;}.cls-3{clip-path:url(#clip-path);}.cls-4{clip-path:url(#clip-path-2);}.cls-5{fill:#fefefe;}.cls-6{clip-path:url(#clip-path-3);}.cls-7{clip-path:url(#clip-path-5);}.cls-8{clip-path:url(#clip-path-7);}.cls-9{isolation:isolate;}.cls-10{clip-path:url(#clip-path-9);}.cls-11{clip-path:url(#clip-path-10);}.cls-12{clip-path:url(#clip-path-11);}.cls-13{clip-path:url(#clip-path-12);}</style><clipPath id="clip-path"><polygon class="cls-1" points="32.44 5.36 28.96 26.47 34.53 26.47 38.02 5.36 32.44 5.36"/></clipPath><clipPath id="clip-path-2"><rect class="cls-2" x="5" y="4.78" width="69" height="22"/></clipPath><clipPath id="clip-path-3"><path class="cls-1" d="M24.29,5.39,18.83,19.78l-.58-2.17a22.23,22.23,0,0,0-7.72-8.75l5,17.6h5.9L30.19,5.38Z"/></clipPath><clipPath id="clip-path-5"><path class="cls-1" d="M16.14,6.9a2.26,2.26,0,0,0-2.43-1.72H5.07L5,5.6c6.72,1.68,11.17,5.74,13,10.62Z"/></clipPath><clipPath id="clip-path-7"><rect class="cls-2" x="38.02" y="5" width="16.72" height="21.78"/></clipPath><clipPath id="clip-path-9"><rect class="cls-2" x="38" y="4.78" width="17" height="23"/></clipPath><clipPath id="clip-path-10"><path class="cls-1" d="M49.31,9.41a10,10,0,0,1,4.17.81l.5.24.76-4.57a14,14,0,0,0-5-.89c-5.51,0-9.39,2.86-9.42,7,0,3,2.77,4.73,4.88,5.74s2.9,1.69,2.89,2.62c0,1.41-1.73,2.06-3.33,2.06a11.52,11.52,0,0,1-5.25-1.11l-.71-.33L38,25.66a17.14,17.14,0,0,0,6.21,1.12c5.86,0,9.66-2.83,9.7-7.21,0-2.4-1.46-4.23-4.68-5.73-2-1-3.15-1.63-3.13-2.62s1-1.81,3.19-1.81"/></clipPath><clipPath id="clip-path-11"><rect class="cls-2" x="38" y="4.78" width="17" height="22"/></clipPath><clipPath id="clip-path-12"><path class="cls-1" d="M69,5.39H64.72a2.74,2.74,0,0,0-2.91,1.75L53.54,26.48h5.85s1-2.6,1.17-3.17h7.13c.17.73.68,3.16.68,3.16h5.17ZM62.16,19c.46-1.21,2.22-5.9,2.22-5.9s.45-1.22.74-2l.38,1.82L66.79,19Z"/></clipPath></defs><title>VISA</title><g class="cls-3"><g class="cls-4"><rect class="cls-5" x="23.96" y="0.36" width="19.06" height="31.1"/></g></g><g class="cls-6"><g class="cls-4"><rect class="cls-5" x="5.53" y="0.38" width="29.66" height="31.07"/></g></g><g class="cls-7"><g class="cls-4"><rect class="cls-5" y="0.17" width="23.01" height="21.05"/></g></g><g class="cls-8"><g class="cls-4"><g class="cls-9"><g class="cls-10"><g class="cls-11"><g class="cls-12"><rect class="cls-5" x="33.02" width="26.72" height="31.78"/></g></g></g></g></g></g><g class="cls-13"><g class="cls-4"><rect class="cls-5" x="48.54" y="0.36" width="30" height="31.12"/></g></g></svg>