<svg id="Layer_1" data-name="Layer 1" xmlns="http://www.w3.org/2000/svg" xmlns:xlink="http://www.w3.org/1999/xlink" viewBox="0 0 78 71"><defs><style>.cls-1,.cls-2,.cls-8{fill:none;}.cls-2{clip-rule:evenodd;}.cls-3{clip-path:url(#clip-path);}.cls-4{clip-path:url(#clip-path-2);}.cls-5{isolation:isolate;}.cls-6{clip-path:url(#clip-path-3);}.cls-7{fill:#fff;}.cls-8{stroke:#20284d;stroke-miterlimit:10;stroke-width:6px;}.cls-9{clip-path:url(#clip-path-7);}.cls-10{clip-path:url(#clip-path-8);}.cls-11{fill:#20284d;}.cls-12{clip-path:url(#clip-path-9);}.cls-13{clip-path:url(#clip-path-11);}.cls-14{clip-path:url(#clip-path-12);}.cls-15{clip-path:url(#clip-path-13);}.cls-16{clip-path:url(#clip-path-14);}.cls-17{clip-path:url(#clip-path-16);}.cls-18{clip-path:url(#clip-path-18);}.cls-19{clip-path:url(#clip-path-19);}</style><clipPath id="clip-path" transform="translate(3 3)"><rect class="cls-1" width="72" height="65" rx="21"/></clipPath><clipPath id="clip-path-2" transform="translate(3 3)"><rect class="cls-1" width="72" height="65"/></clipPath><clipPath id="clip-path-3" transform="translate(3 3)"><rect class="cls-1" x="-30" y="-30" width="132" height="125"/></clipPath><clipPath id="clip-path-7" transform="translate(3 3)"><path class="cls-2" d="M38.85,31.63c2.13-1,10.9.06,13.07,1.71.07-.23.13-.46.19-.69C53,28.87,55,23.74,55.5,23.34s4.39-1.08,5.79-1.57,1.79-4.14,1.7-5.32-2-.39-3.5-.49-2.3-1.77-4.09-2.85-5.89-.4-8.09,0-2.79,4.52-3.39,6.69-3.79,4.91-3.79,4.91l-.64.19a20.16,20.16,0,0,0-.64,6.73"/></clipPath><clipPath id="clip-path-8" transform="translate(3 3)"><rect class="cls-1" x="10" y="6" width="53" height="53"/></clipPath><clipPath id="clip-path-9" transform="translate(3 3)"><rect class="cls-1" x="10.07" y="24.84" width="27.48" height="33.47"/></clipPath><clipPath id="clip-path-11" transform="translate(3 3)"><rect class="cls-1" x="9" y="24" width="29" height="35"/></clipPath><clipPath id="clip-path-12" transform="translate(3 3)"><path class="cls-2" d="M16.37,38a16.59,16.59,0,0,1,0,4,6.2,6.2,0,0,1-2,3s-1.2,10-1.2,10.92a12.69,12.69,0,0,0,.4,2.41h4.15a13,13,0,0,0-1.86-2.51c-.67-.73,1.8-5.9,2.2-6.69a4.05,4.05,0,0,1,2-1.47c.6-.3,4.1-3.15,4.1-3.15s.29,2,.6,3.24,2.89,8.87,2.89,8.87l4.05-.1s-1-1.19-1.55-1.79-.71-1.27-.9-2.74a19.57,19.57,0,0,1,.5-6.8c.6-1.47,1.79-4.33,1.79-4.33s2,.5,3.79,1.09a14.32,14.32,0,0,1,2.22.86c-1.45-3-1.37-14.66-.12-17.39a17.42,17.42,0,0,1-3.49.49c-2.3,0-3.19-.49-8-1a11.2,11.2,0,0,0-9,2.85c-1.59,1.27-2.9,7.77-3.59,10.53C13,40,11,43.39,10.12,45.11a.46.46,0,0,0,.71.55,32.58,32.58,0,0,0,3.34-3.42A15.74,15.74,0,0,0,16.37,38"/></clipPath><clipPath id="clip-path-13" transform="translate(3 3)"><rect class="cls-1" x="10" y="24" width="28" height="35"/></clipPath><clipPath id="clip-path-14" transform="translate(3 3)"><path class="cls-2" d="M38.83,56.6l3.79.09a15.2,15.2,0,0,1-1.3-2.15c-.19-.59,1.8-7.48,1.8-7.48l4.4,11.26h4.1s-1.32-1.82-2-2.7-1.4-4.73-1.5-6.2-.3-8.76.1-9.06a19.14,19.14,0,0,0,3-5c-1.77-1.38-10-2.65-12.38-1.84v0c-.49,2.72,0,11.47,0,11.47Z"/></clipPath><clipPath id="clip-path-16" transform="translate(3 3)"><rect class="cls-1" x="20.61" y="6.75" width="19.86" height="19.1"/></clipPath><clipPath id="clip-path-18" transform="translate(3 3)"><rect class="cls-1" x="20" y="6" width="21" height="20"/></clipPath><clipPath id="clip-path-19" transform="translate(3 3)"><polygon class="cls-2" points="36.81 25.84 20.61 6.75 24.4 7.41 40.47 24.84 39.49 24.9 24.06 8.03 22.57 7.94 37.43 25.41 36.81 25.84"/></clipPath></defs><title>ACCESSIBILITY</title><g class="cls-3"><g class="cls-4"><g class="cls-5"><g class="cls-6"><g class="cls-3"><g class="cls-4"><rect class="cls-7" x="3" y="3" width="72" height="65" rx="21"/></g></g><g class="cls-4"><rect class="cls-8" x="3" y="3" width="72" height="65" rx="21"/></g></g></g></g></g><g class="cls-9"><g class="cls-10"><rect class="cls-11" x="36.77" y="10.53" width="34.23" height="30.81"/></g></g><g class="cls-12"><g class="cls-10"><g class="cls-5"><g class="cls-13"><g class="cls-14"><g class="cls-15"><rect class="cls-11" x="8.07" y="22.84" width="37.48" height="43.47"/></g></g></g></g></g></g><g class="cls-16"><g class="cls-10"><rect class="cls-11" x="36.61" y="31.23" width="23.01" height="35.09"/></g></g><g class="cls-17"><g class="cls-10"><g class="cls-5"><g class="cls-18"><g class="cls-19"><g class="cls-18"><rect class="cls-11" x="18.61" y="4.75" width="29.86" height="29.1"/></g></g></g></g></g></g></svg>