<svg id="Layer_1" data-name="Layer 1" xmlns="http://www.w3.org/2000/svg" xmlns:xlink="http://www.w3.org/1999/xlink" viewBox="0 0 59 71"><defs><style>.cls-1,.cls-2{fill:none;}.cls-1{clip-rule:evenodd;}.cls-3{clip-path:url(#clip-path);}.cls-4{clip-path:url(#clip-path-2);}.cls-5{fill:#20284d;}.cls-6{clip-path:url(#clip-path-3);}</style><clipPath id="clip-path" transform="translate(5 5)"><path class="cls-1" d="M49,52.73,45.48,13.4a1.68,1.68,0,0,0-1.67-1.53H36.59a12.09,12.09,0,0,0-24.18,0H5.2A1.67,1.67,0,0,0,3.52,13.4L0,52.73c0,.05,0,.1,0,.15C0,57.36,4.12,61,9.19,61H39.81C44.88,61,49,57.36,49,52.88a.76.76,0,0,0,0-.15M24.5,4A8.36,8.36,0,0,1,33,12H16a8.36,8.36,0,0,1,8.5-8M39.22,57H8.78C5.61,57,3.05,54.92,3,52.37L6.34,15H12v5.07a1.69,1.69,0,0,0,3.37,0V15H32.66v5.07a1.69,1.69,0,0,0,3.37,0V15h5.62L45,52.37C45,54.92,42.37,57,39.22,57"/></clipPath><clipPath id="clip-path-2" transform="translate(5 5)"><rect class="cls-2" x="-907" y="-58" width="1366" height="5707"/></clipPath><clipPath id="clip-path-3" transform="translate(5 5)"><path class="cls-1" d="M35.83,48.82a4.59,4.59,0,1,0-3-8.41l-9.28-9.28a4.6,4.6,0,1,0-8.42-2.95,4.59,4.59,0,1,0,3,8.41l9.28,9.28a4.6,4.6,0,1,0,8.42,3Zm-2-.93a2.72,2.72,0,1,1-4.62-1.54.91.91,0,0,0,0-1.28L18.93,34.75a.91.91,0,0,0-1.28,0,2.72,2.72,0,1,1-1.54-4.62.91.91,0,0,0,1-.77,1,1,0,0,0,0-.25,2.72,2.72,0,1,1,4.62,1.54.91.91,0,0,0,0,1.28L32.07,42.25a.91.91,0,0,0,1.28,0,2.72,2.72,0,1,1,1.54,4.62.91.91,0,0,0-1,.77,1,1,0,0,0,0,.25Z"/></clipPath></defs><title>BAG</title><g class="cls-3"><g class="cls-4"><rect class="cls-5" width="59" height="71"/></g></g><g class="cls-6"><g class="cls-4"><rect class="cls-5" x="11" y="24" width="39" height="39"/></g></g></svg>