<svg id="Layer_1" data-name="Layer 1" xmlns="http://www.w3.org/2000/svg" xmlns:xlink="http://www.w3.org/1999/xlink" viewBox="0 0 30 30"><defs><style>.cls-1,.cls-2,.cls-6{fill:none;}.cls-2{clip-rule:evenodd;}.cls-3{clip-path:url(#clip-path);}.cls-4{clip-path:url(#clip-path-2);}.cls-5{fill:#fff;}.cls-6{stroke:#eb6543;stroke-miterlimit:10;stroke-width:2px;}.cls-7{clip-path:url(#clip-path-4);}.cls-8{fill:#eb6543;}</style><clipPath id="clip-path" transform="translate(4 4)"><circle class="cls-1" cx="11" cy="11" r="10"/></clipPath><clipPath id="clip-path-2" transform="translate(4 4)"><rect class="cls-1" width="22" height="22"/></clipPath><clipPath id="clip-path-4" transform="translate(4 4)"><path class="cls-2" d="M4,11a7,7,0,1,0,7-7,7,7,0,0,0-7,7Zm9.81-1.89L11.92,11l1.89,1.89a.65.65,0,1,1-.92.92L11,11.92,9.11,13.81a.65.65,0,1,1-.92-.92L10.08,11,8.19,9.11a.65.65,0,1,1,.92-.92L11,10.08l1.89-1.89a.65.65,0,1,1,.92.92Z"/></clipPath></defs><title>CLOSE</title><g class="cls-3"><g class="cls-4"><rect class="cls-5" width="30" height="30"/></g></g><g class="cls-4"><circle class="cls-6" cx="15" cy="15" r="10"/></g><g class="cls-7"><g class="cls-4"><rect class="cls-8" x="3" y="3" width="24" height="24"/></g></g></svg>