<svg id="Layer_1" data-name="Layer 1" xmlns="http://www.w3.org/2000/svg" xmlns:xlink="http://www.w3.org/1999/xlink" viewBox="0 0 103 68.98"><defs><style>.cls-1,.cls-2,.cls-3{fill:none;}.cls-2{clip-rule:evenodd;}.cls-3{fill-rule:evenodd;}.cls-4{clip-path:url(#clip-path);}.cls-5{clip-path:url(#clip-path-2);}.cls-6{isolation:isolate;}.cls-7{clip-path:url(#clip-path-3);}.cls-8{clip-path:url(#clip-path-4);}.cls-9{fill:#fff;}.cls-10{clip-path:url(#clip-path-6);}.cls-11{clip-path:url(#clip-path-8);}.cls-12{clip-path:url(#clip-path-10);}.cls-13{clip-path:url(#clip-path-12);}.cls-14{clip-path:url(#clip-path-14);}</style><clipPath id="clip-path" transform="translate(5 5)"><rect class="cls-1" width="93" height="58.98"/></clipPath><clipPath id="clip-path-2" transform="translate(5 5)"><rect class="cls-1" x="-598" y="-5281.02" width="1366" height="5707"/></clipPath><clipPath id="clip-path-3" transform="translate(5 5)"><rect class="cls-1" y="-0.02" width="93" height="59"/></clipPath><clipPath id="clip-path-4" transform="translate(5 5)"><path class="cls-2" d="M86.49,25l-2.41-9.65a1.46,1.46,0,0,0,1.15-1.43V12.36a6.13,6.13,0,0,0-6.11-6.13h-11V3a3,3,0,0,0-3-3H9.22a3,3,0,0,0-3,3V29.49a1.46,1.46,0,0,0,2.92,0V3a.09.09,0,0,1,.09-.1H65.14a.1.1,0,0,1,.1.1v43.7H35a9.21,9.21,0,0,0-17.43,0H9.22a.1.1,0,0,1-.09-.1V43.41h6.31a1.46,1.46,0,0,0,0-2.92h-14a1.46,1.46,0,1,0,0,2.92H6.21v3.21a3,3,0,0,0,3,3h7.87v.1a9.22,9.22,0,1,0,18.44,0v-.1H68.34v.1a9.23,9.23,0,1,0,18.45,0s0-.06,0-.1h4.76A1.46,1.46,0,0,0,93,48.17V32.6A7.7,7.7,0,0,0,86.49,25ZM26.31,56.06a6.33,6.33,0,1,1,6.31-6.33A6.33,6.33,0,0,1,26.31,56.06ZM68.15,9.15h11a3.21,3.21,0,0,1,3.2,3.21v.1H68.15Zm0,6.23H81.09l2.38,9.53H68.15Zm9.41,40.68a6.33,6.33,0,1,1,6.31-6.33A6.33,6.33,0,0,1,77.56,56.06Zm12.53-9.34H86.28a9.21,9.21,0,0,0-17.43,0h-.7V27.83H85.33a4.77,4.77,0,0,1,4.53,3.3H85.33a1.47,1.47,0,0,0-1.46,1.46v3.12a4.58,4.58,0,0,0,4.57,4.57h1.65Zm0-9.35H88.44a1.65,1.65,0,0,1-1.65-1.65V34.06h3.3Z"/></clipPath><clipPath id="clip-path-6" transform="translate(5 5)"><path class="cls-2" d="M26,47a3,3,0,1,0,3,3,3,3,0,0,0-3-3"/></clipPath><clipPath id="clip-path-8" transform="translate(5 5)"><path class="cls-2" d="M78,47a3,3,0,1,0,3,3,3,3,0,0,0-3-3"/></clipPath><clipPath id="clip-path-10" transform="translate(5 5)"><path class="cls-2" d="M60.52,41h-22a1.5,1.5,0,0,0,0,3h22a1.5,1.5,0,0,0,0-3"/></clipPath><clipPath id="clip-path-12" transform="translate(5 5)"><path class="cls-2" d="M23.51,35h-19a1.5,1.5,0,0,0,0,3h19a1.5,1.5,0,0,0,0-3"/></clipPath><clipPath id="clip-path-14" transform="translate(5 5)"><path class="cls-2" d="M50.57,14.41a1.49,1.49,0,0,0-2.09,0l-13.13,13-6.83-6.78a1.49,1.49,0,0,0-2.09,0,1.47,1.47,0,0,0,0,2.07l7.88,7.82a1.47,1.47,0,0,0,2.08,0L50.57,16.48a1.47,1.47,0,0,0,0-2.07"/></clipPath></defs><title>DELIVERY</title><g class="cls-4"><g class="cls-5"><g class="cls-6"><g class="cls-7"><g class="cls-8"><g class="cls-7"><rect class="cls-9" width="103" height="68.98"/></g></g></g></g></g></g><g class="cls-10"><g class="cls-5"><rect class="cls-9" x="23" y="46.98" width="16" height="16"/></g></g><g class="cls-11"><g class="cls-5"><rect class="cls-9" x="75" y="46.98" width="16" height="16"/></g></g><g class="cls-12"><g class="cls-5"><rect class="cls-9" x="37" y="40.98" width="35" height="13"/></g></g><g class="cls-13"><g class="cls-5"><rect class="cls-9" x="3" y="34.98" width="32" height="13"/></g></g><g class="cls-14"><g class="cls-5"><rect class="cls-9" x="26" y="13.98" width="35" height="27"/></g></g><g class="cls-4"><g class="cls-5"><g class="cls-6"><g class="cls-7"><g class="cls-8"><g class="cls-7"><rect class="cls-9" width="103" height="68.98"/></g></g></g></g></g></g><g class="cls-10"><g class="cls-5"><rect class="cls-9" x="23" y="46.98" width="16" height="16"/></g></g><g class="cls-11"><g class="cls-5"><rect class="cls-9" x="75" y="46.98" width="16" height="16"/></g></g><g class="cls-12"><g class="cls-5"><rect class="cls-9" x="37" y="40.98" width="35" height="13"/></g></g><g class="cls-13"><g class="cls-5"><rect class="cls-9" x="3" y="34.98" width="32" height="13"/></g></g><g class="cls-14"><g class="cls-5"><rect class="cls-9" x="26" y="13.98" width="35" height="27"/></g></g></svg>