<svg id="Layer_1" data-name="Layer 1" xmlns="http://www.w3.org/2000/svg" xmlns:xlink="http://www.w3.org/1999/xlink" viewBox="0 0 73.98 79.11"><defs><style>.cls-1,.cls-10,.cls-2{fill:none;}.cls-1{clip-rule:evenodd;}.cls-3{clip-path:url(#clip-path);}.cls-4{clip-path:url(#clip-path-2);}.cls-5{fill:#eb6543;}.cls-6{clip-path:url(#clip-path-3);}.cls-7{fill:#fefefe;}.cls-8{clip-path:url(#clip-path-5);}.cls-9{fill:#fff;}.cls-10{stroke:#20284d;stroke-miterlimit:10;stroke-width:2px;}.cls-11{clip-path:url(#clip-path-8);}.cls-12{fill:#20284d;}</style><clipPath id="clip-path" transform="translate(5 5)"><path class="cls-1" d="M32,5.13h0a32,32,0,1,1-32,32,32,32,0,0,1,32-32"/></clipPath><clipPath id="clip-path-2" transform="translate(5 5)"><rect class="cls-2" width="64" height="70"/></clipPath><clipPath id="clip-path-3" transform="translate(5 5)"><path class="cls-1" d="M32,0h0A32,32,0,1,1,0,32,32,32,0,0,1,32,0"/></clipPath><clipPath id="clip-path-5" transform="translate(5 5)"><path class="cls-1" d="M32,1h0A31,31,0,1,1,1,32,31,31,0,0,1,32,1Z"/></clipPath><clipPath id="clip-path-8" transform="translate(5 5)"><path class="cls-1" d="M39.37,16.44H35.29c-4.59,0-7.56,3.05-7.56,7.76v3.57H23.62a.64.64,0,0,0-.64.64h0v5.18a.64.64,0,0,0,.64.64h4.11V47.29a.64.64,0,0,0,.64.64h5.36a.63.63,0,0,0,.64-.64V34.22h4.8a.64.64,0,0,0,.65-.64V28.4a.65.65,0,0,0-.65-.64h-4.8v-3c0-1.45.35-2.2,2.25-2.2h2.75a.64.64,0,0,0,.64-.64V17.08a.64.64,0,0,0-.64-.64"/></clipPath></defs><title>FACEBOOK</title><g class="cls-3"><g class="cls-4"><rect class="cls-5" y="5.13" width="73.98" height="73.98"/></g></g><g class="cls-6"><g class="cls-4"><rect class="cls-7" width="73.98" height="73.98"/></g></g><g class="cls-8"><g class="cls-4"><rect class="cls-9" x="1" y="1" width="71.98" height="71.98"/></g></g><g class="cls-4"><path class="cls-10" d="M32,1h0A31,31,0,1,1,1,32,31,31,0,0,1,32,1Z" transform="translate(5 5)"/></g><g class="cls-11"><g class="cls-4"><rect class="cls-12" x="22.98" y="16.43" width="27.03" height="41.5"/></g></g></svg>