<svg id="Layer_1" data-name="Layer 1" xmlns="http://www.w3.org/2000/svg" xmlns:xlink="http://www.w3.org/1999/xlink" viewBox="0 0 78.49 72.46"><defs><style>.cls-1,.cls-2{fill:none;}.cls-2{clip-rule:evenodd;}.cls-3{clip-path:url(#clip-path);}.cls-4{clip-path:url(#clip-path-2);}.cls-5{isolation:isolate;}.cls-6{clip-path:url(#clip-path-3);}.cls-7{clip-path:url(#clip-path-4);}.cls-8{clip-path:url(#clip-path-5);}.cls-9{fill:#1b264f;}.cls-10{clip-path:url(#clip-path-6);}.cls-11{clip-path:url(#clip-path-8);}.cls-12{clip-path:url(#clip-path-10);}.cls-13{clip-path:url(#clip-path-12);}.cls-14{clip-path:url(#clip-path-14);}</style><clipPath id="clip-path" transform="translate(5 5)"><rect class="cls-1" width="68.49" height="62.46"/></clipPath><clipPath id="clip-path-2" transform="translate(5 5)"><rect class="cls-1" y="-1" width="69" height="64"/></clipPath><clipPath id="clip-path-3" transform="translate(5 5)"><rect class="cls-1" x="-1" y="-2" width="71" height="65"/></clipPath><clipPath id="clip-path-4" transform="translate(5 5)"><path class="cls-2" d="M66.71,21.71,46,4.17a18.55,18.55,0,0,0-23.43,0L1.77,21.71a5,5,0,0,0,4.74,8.58V51.42a11.06,11.06,0,0,0,11,11H50.92a11.05,11.05,0,0,0,11-11V30.29a4.87,4.87,0,0,0,1.51.24,5,5,0,0,0,3.23-8.82ZM57,51.42a6,6,0,0,1-6,6H17.56a6.06,6.06,0,0,1-6-6V26.58L29,11.8a8.67,8.67,0,0,1,10.52,0L57,26.57Z"/></clipPath><clipPath id="clip-path-5" transform="translate(5 5)"><rect class="cls-1" width="69" height="63"/></clipPath><clipPath id="clip-path-6" transform="translate(5 5)"><path class="cls-2" d="M44.92,45.16c.31,3-9.7,5.27-10.68,4.49-1,.78-11-1.48-10.67-4.49A7.74,7.74,0,0,1,27,39c1.33-1.12,2.86-4.08,4.19-4.69a4.52,4.52,0,0,1,3,0,4.54,4.54,0,0,1,3,0c1.32.61,2.85,3.57,4.18,4.69a7.77,7.77,0,0,1,3.47,6.12"/></clipPath><clipPath id="clip-path-8" transform="translate(5 5)"><path class="cls-2" d="M32.86,27c.6,2.76-.63,5.36-2.75,5.83s-4.32-1.4-4.92-4.15.63-5.36,2.75-5.82,4.32,1.39,4.92,4.14"/></clipPath><clipPath id="clip-path-10" transform="translate(5 5)"><path class="cls-2" d="M25.11,34.76c.52,2.37-.52,4.61-2.31,5s-3.67-1.21-4.19-3.58.52-4.6,2.31-5,3.67,1.21,4.19,3.57"/></clipPath><clipPath id="clip-path-12" transform="translate(5 5)"><path class="cls-2" d="M35.62,27c-.6,2.76.63,5.36,2.75,5.83s4.33-1.4,4.93-4.15-.63-5.36-2.75-5.82S36.23,24.22,35.62,27"/></clipPath><clipPath id="clip-path-14" transform="translate(5 5)"><path class="cls-2" d="M43.38,34.76c-.52,2.37.52,4.61,2.31,5s3.67-1.21,4.19-3.58-.52-4.6-2.32-5-3.67,1.21-4.18,3.57"/></clipPath></defs><title>HOME</title><g class="cls-3"><g class="cls-4"><g class="cls-5"><g class="cls-6"><g class="cls-7"><g class="cls-8"><rect class="cls-9" width="78.49" height="72.46"/></g></g></g></g></g></g><g class="cls-10"><g class="cls-4"><rect class="cls-9" x="23.56" y="34.07" width="31.36" height="25.73"/></g></g><g class="cls-11"><g class="cls-4"><rect class="cls-9" x="25.04" y="22.76" width="17.98" height="20.11"/></g></g><g class="cls-12"><g class="cls-4"><rect class="cls-9" x="18.48" y="31.13" width="16.77" height="18.68"/></g></g><g class="cls-13"><g class="cls-4"><rect class="cls-9" x="35.47" y="22.76" width="17.98" height="20.11"/></g></g><g class="cls-14"><g class="cls-4"><rect class="cls-9" x="43.24" y="31.13" width="16.77" height="18.68"/></g></g></svg>