<svg id="Layer_1" data-name="Layer 1" xmlns="http://www.w3.org/2000/svg" xmlns:xlink="http://www.w3.org/1999/xlink" viewBox="0 0 73.98 79.11"><defs><style>.cls-1,.cls-10,.cls-2{fill:none;}.cls-1{clip-rule:evenodd;}.cls-3{clip-path:url(#clip-path);}.cls-4{clip-path:url(#clip-path-2);}.cls-5{fill:#eb6543;}.cls-6{clip-path:url(#clip-path-3);}.cls-7{fill:#fefefe;}.cls-8{clip-path:url(#clip-path-5);}.cls-9{fill:#fff;}.cls-10{stroke:#20284d;stroke-miterlimit:10;stroke-width:2px;}.cls-11{clip-path:url(#clip-path-8);}.cls-12{fill:#20284d;}.cls-13{clip-path:url(#clip-path-10);}.cls-14{clip-path:url(#clip-path-12);}</style><clipPath id="clip-path" transform="translate(5 5)"><path class="cls-1" d="M32,5.13h0a32,32,0,1,1-32,32,32,32,0,0,1,32-32"/></clipPath><clipPath id="clip-path-2" transform="translate(5 5)"><rect class="cls-2" width="64" height="70"/></clipPath><clipPath id="clip-path-3" transform="translate(5 5)"><path class="cls-1" d="M32,0h0A32,32,0,1,1,0,32,32,32,0,0,1,32,0"/></clipPath><clipPath id="clip-path-5" transform="translate(5 5)"><path class="cls-1" d="M32,1h0A31,31,0,1,1,1,32,31,31,0,0,1,32,1Z"/></clipPath><clipPath id="clip-path-8" transform="translate(5 5)"><path class="cls-1" d="M37.53,17.67H25.7A8.73,8.73,0,0,0,17,26.39V38.22a8.73,8.73,0,0,0,8.72,8.71H37.53a8.73,8.73,0,0,0,8.72-8.71V26.39A8.73,8.73,0,0,0,37.53,17.67ZM43.3,38.22A5.77,5.77,0,0,1,37.53,44H25.7a5.77,5.77,0,0,1-5.77-5.77V26.39a5.77,5.77,0,0,1,5.77-5.78H37.53a5.77,5.77,0,0,1,5.77,5.78Z"/></clipPath><clipPath id="clip-path-10" transform="translate(5 5)"><path class="cls-1" d="M31.61,24.73a7.57,7.57,0,1,0,7.57,7.57,7.56,7.56,0,0,0-7.57-7.57m0,12.2a4.63,4.63,0,1,1,4.63-4.63,4.63,4.63,0,0,1-4.63,4.63"/></clipPath><clipPath id="clip-path-12" transform="translate(5 5)"><path class="cls-1" d="M39.2,23a1.82,1.82,0,1,1-1.82,1.82A1.82,1.82,0,0,1,39.2,23"/></clipPath></defs><title>INSTAGRAM</title><g class="cls-3"><g class="cls-4"><rect class="cls-5" y="5.13" width="73.98" height="73.98"/></g></g><g class="cls-6"><g class="cls-4"><rect class="cls-7" width="73.98" height="73.98"/></g></g><g class="cls-8"><g class="cls-4"><rect class="cls-9" x="1" y="1" width="71.98" height="71.98"/></g></g><g class="cls-4"><path class="cls-10" d="M32,1h0A31,31,0,1,1,1,32,31,31,0,0,1,32,1Z" transform="translate(5 5)"/></g><g class="cls-11"><g class="cls-4"><rect class="cls-12" x="16.98" y="17.67" width="39.27" height="39.27"/></g></g><g class="cls-13"><g class="cls-4"><rect class="cls-12" x="24.05" y="24.73" width="25.14" height="25.14"/></g></g><g class="cls-14"><g class="cls-4"><rect class="cls-12" x="37.38" y="22.97" width="13.63" height="13.63"/></g></g></svg>