<svg id="Layer_1" data-name="Layer 1" xmlns="http://www.w3.org/2000/svg" xmlns:xlink="http://www.w3.org/1999/xlink" viewBox="0 0 244.36 115.31"><defs><style>.cls-1,.cls-2,.cls-4,.cls-7{fill:none;}.cls-2{clip-rule:evenodd;}.cls-3{clip-path:url(#clip-path);}.cls-4,.cls-7{stroke:#fff;stroke-linecap:round;stroke-linejoin:round;}.cls-4{stroke-width:5px;}.cls-5{clip-path:url(#clip-path-2);}.cls-6{fill:#fff;}.cls-7{stroke-width:3px;}.cls-8{clip-path:url(#clip-path-5);}</style><clipPath id="clip-path" transform="translate(0 0)"><rect class="cls-1" width="245" height="116"/></clipPath><clipPath id="clip-path-2" transform="translate(0 0)"><path class="cls-2" d="M131.19,40.91c0,2.41-4,4.37-9,4.37s-9-2-9-4.37,4-4.36,9-4.36,9,2,9,4.36"/></clipPath><clipPath id="clip-path-5" transform="translate(0 0)"><path class="cls-2" d="M162.74,29.45a7.32,7.32,0,1,1-7.32-7.31,7.32,7.32,0,0,1,7.32,7.31"/></clipPath></defs><title>LOGO BLANC</title><g class="cls-3"><path class="cls-4" d="M140.18,81V94.77a18,18,0,1,1-36.07,0V81" transform="translate(0 0)"/><path class="cls-4" d="M68,65.52a28.16,28.16,0,0,0,54.16-10.85" transform="translate(0 0)"/><path class="cls-4" d="M122.18,54.67h0a28.17,28.17,0,0,0,54.16,10.85" transform="translate(0 0)"/></g><g class="cls-5"><g class="cls-3"><rect class="cls-6" x="108.17" y="31.55" width="28.01" height="18.73"/></g></g><g class="cls-3"><ellipse class="cls-4" cx="122.18" cy="40.91" rx="9.01" ry="4.36"/><line class="cls-7" x1="122.18" y1="65.74" x2="122.18" y2="91.56"/><path class="cls-4" d="M191.72,58.79a12.54,12.54,0,0,1,25.07,0V82.84" transform="translate(0 0)"/><path class="cls-4" d="M166.64,58.79a12.54,12.54,0,0,1,25.08,0,40.2,40.2,0,0,1-3.89,17.55" transform="translate(0 0)"/><path class="cls-4" d="M216.79,73.45V58.79a12.54,12.54,0,0,1,25.07,0V93.18" transform="translate(0 0)"/><path class="cls-4" d="M27.57,82.84V58.79a12.54,12.54,0,0,1,25.08,0" transform="translate(0 0)"/><path class="cls-4" d="M56.53,76.34a40.2,40.2,0,0,1-3.88-17.55,12.54,12.54,0,0,1,25.07,0" transform="translate(0 0)"/><path class="cls-4" d="M2.5,58.79a12.54,12.54,0,0,1,25.07,0V73.45" transform="translate(0 0)"/></g><g class="cls-8"><g class="cls-3"><rect class="cls-6" x="143.1" y="17.14" width="24.63" height="24.63"/></g></g><g class="cls-3"><path class="cls-4" d="M168.3,33.58A12.88,12.88,0,1,1,155.42,20.7,12.88,12.88,0,0,1,168.3,33.58Z" transform="translate(0 0)"/><path class="cls-4" d="M181.18,46.46A12.88,12.88,0,0,1,168.3,33.58V15.38h0a12.88,12.88,0,1,0-25.76,0" transform="translate(0 0)"/></g></svg>