<svg id="Layer_1" data-name="Layer 1" xmlns="http://www.w3.org/2000/svg" xmlns:xlink="http://www.w3.org/1999/xlink" viewBox="0 0 156.65 30.28"><defs><style>.cls-1,.cls-2{fill:none;}.cls-2{clip-rule:evenodd;}.cls-3{clip-path:url(#clip-path);}.cls-4{clip-path:url(#clip-path-2);}.cls-5{isolation:isolate;}.cls-6{clip-path:url(#clip-path-3);}.cls-7{clip-path:url(#clip-path-4);}.cls-8{clip-path:url(#clip-path-5);}.cls-9{fill:#eb6543;}.cls-10{clip-path:url(#clip-path-6);}.cls-11{clip-path:url(#clip-path-8);}.cls-12{clip-path:url(#clip-path-9);}.cls-13{clip-path:url(#clip-path-11);}.cls-14{clip-path:url(#clip-path-13);}.cls-15{clip-path:url(#clip-path-14);}.cls-16{clip-path:url(#clip-path-15);}.cls-17{clip-path:url(#clip-path-16);}.cls-18{clip-path:url(#clip-path-18);}.cls-19{clip-path:url(#clip-path-19);}.cls-20{clip-path:url(#clip-path-20);}.cls-21{clip-path:url(#clip-path-21);}.cls-22{clip-path:url(#clip-path-23);}.cls-23{clip-path:url(#clip-path-24);}.cls-24{clip-path:url(#clip-path-26);}.cls-25{clip-path:url(#clip-path-28);}.cls-26{clip-path:url(#clip-path-29);}.cls-27{clip-path:url(#clip-path-30);}.cls-28{clip-path:url(#clip-path-31);}.cls-29{clip-path:url(#clip-path-33);}.cls-30{clip-path:url(#clip-path-34);}.cls-31{clip-path:url(#clip-path-36);}.cls-32{clip-path:url(#clip-path-38);}.cls-33{clip-path:url(#clip-path-39);}.cls-34{clip-path:url(#clip-path-40);}.cls-35{clip-path:url(#clip-path-41);}.cls-36{clip-path:url(#clip-path-43);}.cls-37{clip-path:url(#clip-path-44);}.cls-38{clip-path:url(#clip-path-45);}.cls-39{clip-path:url(#clip-path-46);}.cls-40{clip-path:url(#clip-path-48);}.cls-41{clip-path:url(#clip-path-49);}.cls-42{clip-path:url(#clip-path-51);}.cls-43{clip-path:url(#clip-path-53);}.cls-44{clip-path:url(#clip-path-54);}.cls-45{clip-path:url(#clip-path-55);}.cls-46{clip-path:url(#clip-path-56);}.cls-47{clip-path:url(#clip-path-58);}.cls-48{clip-path:url(#clip-path-59);}.cls-49{clip-path:url(#clip-path-61);}.cls-50{clip-path:url(#clip-path-63);}.cls-51{clip-path:url(#clip-path-64);}.cls-52{clip-path:url(#clip-path-65);}.cls-53{clip-path:url(#clip-path-66);}.cls-54{clip-path:url(#clip-path-68);}.cls-55{clip-path:url(#clip-path-69);}.cls-56{clip-path:url(#clip-path-70);}.cls-57{clip-path:url(#clip-path-71);}.cls-58{clip-path:url(#clip-path-73);}.cls-59{clip-path:url(#clip-path-74);}.cls-60{clip-path:url(#clip-path-76);}.cls-61{clip-path:url(#clip-path-78);}.cls-62{clip-path:url(#clip-path-79);}.cls-63{clip-path:url(#clip-path-80);}.cls-64{clip-path:url(#clip-path-81);}.cls-65{clip-path:url(#clip-path-83);}.cls-66{clip-path:url(#clip-path-84);}.cls-67{clip-path:url(#clip-path-86);}.cls-68{clip-path:url(#clip-path-88);}.cls-69{clip-path:url(#clip-path-89);}.cls-70{clip-path:url(#clip-path-90);}.cls-71{clip-path:url(#clip-path-91);}.cls-72{clip-path:url(#clip-path-93);}.cls-73{clip-path:url(#clip-path-94);}.cls-74{clip-path:url(#clip-path-95);}.cls-75{clip-path:url(#clip-path-96);}.cls-76{clip-path:url(#clip-path-98);}.cls-77{clip-path:url(#clip-path-99);}.cls-78{clip-path:url(#clip-path-101);}.cls-79{clip-path:url(#clip-path-103);}.cls-80{clip-path:url(#clip-path-104);}.cls-81{clip-path:url(#clip-path-105);}.cls-82{clip-path:url(#clip-path-106);}.cls-83{clip-path:url(#clip-path-108);}.cls-84{clip-path:url(#clip-path-109);}.cls-85{clip-path:url(#clip-path-111);}.cls-86{clip-path:url(#clip-path-113);}.cls-87{clip-path:url(#clip-path-114);}.cls-88{clip-path:url(#clip-path-115);}.cls-89{clip-path:url(#clip-path-116);}.cls-90{clip-path:url(#clip-path-118);}.cls-91{clip-path:url(#clip-path-119);}.cls-92{clip-path:url(#clip-path-120);}.cls-93{clip-path:url(#clip-path-121);}.cls-94{clip-path:url(#clip-path-123);}.cls-95{clip-path:url(#clip-path-124);}</style><clipPath id="clip-path" transform="translate(5 5)"><rect class="cls-1" x="4.06" y="8.48" width="15.54" height="11.8"/></clipPath><clipPath id="clip-path-2" transform="translate(5 5)"><rect class="cls-1" y="-0.72" width="147" height="21"/></clipPath><clipPath id="clip-path-3" transform="translate(5 5)"><rect class="cls-1" x="3" y="7.28" width="17" height="14"/></clipPath><clipPath id="clip-path-4" transform="translate(5 5)"><path class="cls-2" d="M19.6,16.8c.22,2.25-7.06,3.95-7.77,3.36-.71.59-8-1.11-7.76-3.36a5.83,5.83,0,0,1,2.52-4.59c1-.84,2.08-3.06,3-3.52a3.17,3.17,0,0,1,2.2,0,3.17,3.17,0,0,1,2.2,0c1,.46,2.08,2.68,3,3.52A5.86,5.86,0,0,1,19.6,16.8"/></clipPath><clipPath id="clip-path-5" transform="translate(5 5)"><rect class="cls-1" x="4" y="8.28" width="16" height="12"/></clipPath><clipPath id="clip-path-6" transform="translate(5 5)"><rect class="cls-1" x="5.37" width="5.32" height="7.58"/></clipPath><clipPath id="clip-path-8" transform="translate(5 5)"><rect class="cls-1" x="5" y="-0.72" width="6" height="9"/></clipPath><clipPath id="clip-path-9" transform="translate(5 5)"><path class="cls-2" d="M10.59,3.16c.4,2.06-.42,4-1.83,4.37s-2.88-1-3.29-3.11S5.89.4,7.31.05s2.88,1.05,3.28,3.11"/></clipPath><clipPath id="clip-path-11" transform="translate(5 5)"><rect class="cls-1" y="6.51" width="4.83" height="6.08"/></clipPath><clipPath id="clip-path-13" transform="translate(5 5)"><rect class="cls-1" x="-1" y="6.28" width="7" height="7"/></clipPath><clipPath id="clip-path-14" transform="translate(5 5)"><path class="cls-2" d="M4.74,9.06c.37,1.65-.37,3.22-1.66,3.49s-2.62-.84-3-2.5S.47,6.83,1.75,6.56s2.62.84,3,2.5"/></clipPath><clipPath id="clip-path-15" transform="translate(5 5)"><rect class="cls-1" y="6.28" width="5" height="7"/></clipPath><clipPath id="clip-path-16" transform="translate(5 5)"><rect class="cls-1" x="12.66" width="5.32" height="7.58"/></clipPath><clipPath id="clip-path-18" transform="translate(5 5)"><rect class="cls-1" x="12" y="-0.72" width="7" height="9"/></clipPath><clipPath id="clip-path-19" transform="translate(5 5)"><path class="cls-2" d="M12.76,3.16c-.4,2.06.42,4,1.84,4.37s2.88-1,3.28-3.11S17.46.4,16.05.05,13.17,1.1,12.76,3.16"/></clipPath><clipPath id="clip-path-20" transform="translate(5 5)"><rect class="cls-1" x="12" y="-0.72" width="6" height="9"/></clipPath><clipPath id="clip-path-21" transform="translate(5 5)"><rect class="cls-1" x="17.58" y="6.51" width="5.07" height="6.08"/></clipPath><clipPath id="clip-path-23" transform="translate(5 5)"><rect class="cls-1" x="17" y="6.28" width="6" height="7"/></clipPath><clipPath id="clip-path-24" transform="translate(5 5)"><path class="cls-2" d="M17.68,9.06c-.39,1.65.38,3.22,1.73,3.49a2.92,2.92,0,0,0,3.14-2.5c.39-1.66-.39-3.22-1.74-3.49a2.91,2.91,0,0,0-3.13,2.5"/></clipPath><clipPath id="clip-path-26" transform="translate(5 5)"><rect class="cls-1" x="35.06" y="8.48" width="15.54" height="11.8"/></clipPath><clipPath id="clip-path-28" transform="translate(5 5)"><rect class="cls-1" x="34" y="7.28" width="17" height="14"/></clipPath><clipPath id="clip-path-29" transform="translate(5 5)"><path class="cls-2" d="M50.6,16.8c.22,2.25-7.06,3.95-7.77,3.36-.71.59-8-1.11-7.76-3.36a5.83,5.83,0,0,1,2.52-4.59c1-.84,2.08-3.06,3-3.52a3.17,3.17,0,0,1,2.2,0,3.17,3.17,0,0,1,2.2,0c1,.46,2.08,2.68,3,3.52A5.86,5.86,0,0,1,50.6,16.8"/></clipPath><clipPath id="clip-path-30" transform="translate(5 5)"><rect class="cls-1" x="35" y="8.28" width="16" height="12"/></clipPath><clipPath id="clip-path-31" transform="translate(5 5)"><rect class="cls-1" x="36.37" width="5.32" height="7.58"/></clipPath><clipPath id="clip-path-33" transform="translate(5 5)"><rect class="cls-1" x="36" y="-0.72" width="6" height="9"/></clipPath><clipPath id="clip-path-34" transform="translate(5 5)"><path class="cls-2" d="M41.59,3.16c.4,2.06-.42,4-1.83,4.37s-2.88-1-3.29-3.11.42-4,1.84-4.37,2.88,1.05,3.28,3.11"/></clipPath><clipPath id="clip-path-36" transform="translate(5 5)"><rect class="cls-1" x="31" y="6.51" width="4.83" height="6.08"/></clipPath><clipPath id="clip-path-38" transform="translate(5 5)"><rect class="cls-1" x="30" y="6.28" width="7" height="7"/></clipPath><clipPath id="clip-path-39" transform="translate(5 5)"><path class="cls-2" d="M35.74,9.06c.37,1.65-.37,3.22-1.66,3.49s-2.62-.84-3-2.5.38-3.22,1.66-3.49,2.62.84,3,2.5"/></clipPath><clipPath id="clip-path-40" transform="translate(5 5)"><rect class="cls-1" x="31" y="6.28" width="5" height="7"/></clipPath><clipPath id="clip-path-41" transform="translate(5 5)"><rect class="cls-1" x="43.66" width="5.32" height="7.58"/></clipPath><clipPath id="clip-path-43" transform="translate(5 5)"><rect class="cls-1" x="43" y="-0.72" width="7" height="9"/></clipPath><clipPath id="clip-path-44" transform="translate(5 5)"><path class="cls-2" d="M43.76,3.16c-.4,2.06.42,4,1.84,4.37s2.88-1,3.28-3.11S48.46.4,47.05.05,44.17,1.1,43.76,3.16"/></clipPath><clipPath id="clip-path-45" transform="translate(5 5)"><rect class="cls-1" x="43" y="-0.72" width="6" height="9"/></clipPath><clipPath id="clip-path-46" transform="translate(5 5)"><rect class="cls-1" x="48.58" y="6.51" width="5.07" height="6.08"/></clipPath><clipPath id="clip-path-48" transform="translate(5 5)"><rect class="cls-1" x="48" y="6.28" width="6" height="7"/></clipPath><clipPath id="clip-path-49" transform="translate(5 5)"><path class="cls-2" d="M48.68,9.06c-.39,1.65.38,3.22,1.73,3.49a2.92,2.92,0,0,0,3.14-2.5c.39-1.66-.39-3.22-1.74-3.49a2.91,2.91,0,0,0-3.13,2.5"/></clipPath><clipPath id="clip-path-51" transform="translate(5 5)"><rect class="cls-1" x="66.06" y="8.48" width="15.54" height="11.8"/></clipPath><clipPath id="clip-path-53" transform="translate(5 5)"><rect class="cls-1" x="65" y="7.28" width="17" height="14"/></clipPath><clipPath id="clip-path-54" transform="translate(5 5)"><path class="cls-2" d="M81.6,16.8c.22,2.25-7.06,3.95-7.77,3.36-.71.59-8-1.11-7.76-3.36a5.83,5.83,0,0,1,2.52-4.59c1-.84,2.08-3.06,3-3.52a3.17,3.17,0,0,1,2.2,0,3.17,3.17,0,0,1,2.2,0c1,.46,2.08,2.68,3,3.52A5.86,5.86,0,0,1,81.6,16.8"/></clipPath><clipPath id="clip-path-55" transform="translate(5 5)"><rect class="cls-1" x="66" y="8.28" width="16" height="12"/></clipPath><clipPath id="clip-path-56" transform="translate(5 5)"><rect class="cls-1" x="67.37" width="5.32" height="7.58"/></clipPath><clipPath id="clip-path-58" transform="translate(5 5)"><rect class="cls-1" x="67" y="-0.72" width="6" height="9"/></clipPath><clipPath id="clip-path-59" transform="translate(5 5)"><path class="cls-2" d="M72.59,3.16c.4,2.06-.42,4-1.83,4.37s-2.88-1-3.29-3.11.42-4,1.84-4.37,2.88,1.05,3.28,3.11"/></clipPath><clipPath id="clip-path-61" transform="translate(5 5)"><rect class="cls-1" x="62" y="6.51" width="4.83" height="6.08"/></clipPath><clipPath id="clip-path-63" transform="translate(5 5)"><rect class="cls-1" x="61" y="6.28" width="7" height="7"/></clipPath><clipPath id="clip-path-64" transform="translate(5 5)"><path class="cls-2" d="M66.74,9.06c.37,1.65-.37,3.22-1.66,3.49s-2.62-.84-3-2.5.37-3.22,1.65-3.49,2.62.84,3,2.5"/></clipPath><clipPath id="clip-path-65" transform="translate(5 5)"><rect class="cls-1" x="62" y="6.28" width="5" height="7"/></clipPath><clipPath id="clip-path-66" transform="translate(5 5)"><rect class="cls-1" x="74.66" width="5.32" height="7.58"/></clipPath><clipPath id="clip-path-68" transform="translate(5 5)"><rect class="cls-1" x="74" y="-0.72" width="7" height="9"/></clipPath><clipPath id="clip-path-69" transform="translate(5 5)"><path class="cls-2" d="M74.76,3.16c-.4,2.06.42,4,1.84,4.37s2.88-1,3.28-3.11S79.46.4,78.05.05,75.17,1.1,74.76,3.16"/></clipPath><clipPath id="clip-path-70" transform="translate(5 5)"><rect class="cls-1" x="74" y="-0.72" width="6" height="9"/></clipPath><clipPath id="clip-path-71" transform="translate(5 5)"><rect class="cls-1" x="79.58" y="6.51" width="5.07" height="6.08"/></clipPath><clipPath id="clip-path-73" transform="translate(5 5)"><rect class="cls-1" x="79" y="6.28" width="6" height="7"/></clipPath><clipPath id="clip-path-74" transform="translate(5 5)"><path class="cls-2" d="M79.68,9.06c-.39,1.65.38,3.22,1.73,3.49a2.92,2.92,0,0,0,3.14-2.5c.39-1.66-.39-3.22-1.74-3.49a2.91,2.91,0,0,0-3.13,2.5"/></clipPath><clipPath id="clip-path-76" transform="translate(5 5)"><rect class="cls-1" x="97.06" y="8.48" width="15.54" height="11.8"/></clipPath><clipPath id="clip-path-78" transform="translate(5 5)"><rect class="cls-1" x="96" y="7.28" width="17" height="14"/></clipPath><clipPath id="clip-path-79" transform="translate(5 5)"><path class="cls-2" d="M112.6,16.8c.22,2.25-7.06,3.95-7.77,3.36-.71.59-8-1.11-7.76-3.36a5.83,5.83,0,0,1,2.52-4.59c1-.84,2.08-3.06,3-3.52a3.17,3.17,0,0,1,2.2,0,3.17,3.17,0,0,1,2.2,0c1,.46,2.08,2.68,3,3.52a5.86,5.86,0,0,1,2.53,4.59"/></clipPath><clipPath id="clip-path-80" transform="translate(5 5)"><rect class="cls-1" x="97" y="8.28" width="16" height="12"/></clipPath><clipPath id="clip-path-81" transform="translate(5 5)"><rect class="cls-1" x="98.37" width="5.32" height="7.58"/></clipPath><clipPath id="clip-path-83" transform="translate(5 5)"><rect class="cls-1" x="98" y="-0.72" width="6" height="9"/></clipPath><clipPath id="clip-path-84" transform="translate(5 5)"><path class="cls-2" d="M103.59,3.16c.4,2.06-.42,4-1.83,4.37s-2.88-1-3.29-3.11.42-4,1.84-4.37,2.88,1.05,3.28,3.11"/></clipPath><clipPath id="clip-path-86" transform="translate(5 5)"><rect class="cls-1" x="93" y="6.51" width="4.83" height="6.08"/></clipPath><clipPath id="clip-path-88" transform="translate(5 5)"><rect class="cls-1" x="92" y="6.28" width="7" height="7"/></clipPath><clipPath id="clip-path-89" transform="translate(5 5)"><path class="cls-2" d="M97.74,9.06c.37,1.65-.37,3.22-1.66,3.49s-2.62-.84-3-2.5.37-3.22,1.65-3.49,2.62.84,3,2.5"/></clipPath><clipPath id="clip-path-90" transform="translate(5 5)"><rect class="cls-1" x="93" y="6.28" width="5" height="7"/></clipPath><clipPath id="clip-path-91" transform="translate(5 5)"><rect class="cls-1" x="105.66" width="5.32" height="7.58"/></clipPath><clipPath id="clip-path-93" transform="translate(5 5)"><rect class="cls-1" x="105" y="-0.72" width="7" height="9"/></clipPath><clipPath id="clip-path-94" transform="translate(5 5)"><path class="cls-2" d="M105.76,3.16c-.4,2.06.42,4,1.84,4.37s2.88-1,3.28-3.11-.42-4-1.83-4.37-2.88,1.05-3.29,3.11"/></clipPath><clipPath id="clip-path-95" transform="translate(5 5)"><rect class="cls-1" x="105" y="-0.72" width="6" height="9"/></clipPath><clipPath id="clip-path-96" transform="translate(5 5)"><rect class="cls-1" x="110.58" y="6.51" width="5.07" height="6.08"/></clipPath><clipPath id="clip-path-98" transform="translate(5 5)"><rect class="cls-1" x="110" y="6.28" width="6" height="7"/></clipPath><clipPath id="clip-path-99" transform="translate(5 5)"><path class="cls-2" d="M110.68,9.06c-.39,1.65.38,3.22,1.73,3.49a2.92,2.92,0,0,0,3.14-2.5c.39-1.66-.39-3.22-1.74-3.49a2.91,2.91,0,0,0-3.13,2.5"/></clipPath><clipPath id="clip-path-101" transform="translate(5 5)"><rect class="cls-1" x="128.06" y="8.48" width="15.54" height="11.8"/></clipPath><clipPath id="clip-path-103" transform="translate(5 5)"><rect class="cls-1" x="127" y="7.28" width="17" height="14"/></clipPath><clipPath id="clip-path-104" transform="translate(5 5)"><path class="cls-2" d="M143.6,16.8c.22,2.25-7.06,3.95-7.77,3.36-.71.59-8-1.11-7.76-3.36a5.83,5.83,0,0,1,2.52-4.59c1-.84,2.08-3.06,3-3.52a3.17,3.17,0,0,1,2.2,0,3.17,3.17,0,0,1,2.2,0c1,.46,2.08,2.68,3,3.52a5.86,5.86,0,0,1,2.53,4.59"/></clipPath><clipPath id="clip-path-105" transform="translate(5 5)"><rect class="cls-1" x="128" y="8.28" width="16" height="12"/></clipPath><clipPath id="clip-path-106" transform="translate(5 5)"><rect class="cls-1" x="129.37" width="5.32" height="7.58"/></clipPath><clipPath id="clip-path-108" transform="translate(5 5)"><rect class="cls-1" x="129" y="-0.72" width="6" height="9"/></clipPath><clipPath id="clip-path-109" transform="translate(5 5)"><path class="cls-2" d="M134.59,3.16c.4,2.06-.42,4-1.83,4.37s-2.88-1-3.29-3.11.42-4,1.84-4.37,2.88,1.05,3.28,3.11"/></clipPath><clipPath id="clip-path-111" transform="translate(5 5)"><rect class="cls-1" x="124" y="6.51" width="4.83" height="6.08"/></clipPath><clipPath id="clip-path-113" transform="translate(5 5)"><rect class="cls-1" x="123" y="6.28" width="7" height="7"/></clipPath><clipPath id="clip-path-114" transform="translate(5 5)"><path class="cls-2" d="M128.74,9.06c.37,1.65-.37,3.22-1.66,3.49s-2.62-.84-3-2.5.37-3.22,1.65-3.49,2.62.84,3,2.5"/></clipPath><clipPath id="clip-path-115" transform="translate(5 5)"><rect class="cls-1" x="124" y="6.28" width="5" height="7"/></clipPath><clipPath id="clip-path-116" transform="translate(5 5)"><rect class="cls-1" x="136.66" width="5.32" height="7.58"/></clipPath><clipPath id="clip-path-118" transform="translate(5 5)"><rect class="cls-1" x="136" y="-0.72" width="7" height="9"/></clipPath><clipPath id="clip-path-119" transform="translate(5 5)"><path class="cls-2" d="M136.76,3.16c-.4,2.06.42,4,1.84,4.37s2.88-1,3.28-3.11-.42-4-1.83-4.37-2.88,1.05-3.29,3.11"/></clipPath><clipPath id="clip-path-120" transform="translate(5 5)"><rect class="cls-1" x="136" y="-0.72" width="6" height="9"/></clipPath><clipPath id="clip-path-121" transform="translate(5 5)"><rect class="cls-1" x="141.58" y="6.51" width="5.07" height="6.08"/></clipPath><clipPath id="clip-path-123" transform="translate(5 5)"><rect class="cls-1" x="141" y="6.28" width="6" height="7"/></clipPath><clipPath id="clip-path-124" transform="translate(5 5)"><path class="cls-2" d="M141.68,9.06c-.39,1.65.38,3.22,1.73,3.49a2.92,2.92,0,0,0,3.14-2.5c.39-1.66-.39-3.22-1.74-3.49a2.91,2.91,0,0,0-3.13,2.5"/></clipPath></defs><title>PAWSTAR</title><g class="cls-3"><g class="cls-4"><g class="cls-5"><g class="cls-6"><g class="cls-7"><g class="cls-8"><rect class="cls-9" x="4.06" y="8.48" width="25.54" height="21.8"/></g></g></g></g></g></g><g class="cls-10"><g class="cls-4"><g class="cls-5"><g class="cls-11"><g class="cls-12"><g class="cls-11"><rect class="cls-9" x="5.37" width="15.32" height="17.58"/></g></g></g></g></g></g><g class="cls-13"><g class="cls-4"><g class="cls-5"><g class="cls-14"><g class="cls-15"><g class="cls-16"><rect class="cls-9" y="6.51" width="14.83" height="16.08"/></g></g></g></g></g></g><g class="cls-17"><g class="cls-4"><g class="cls-5"><g class="cls-18"><g class="cls-19"><g class="cls-20"><rect class="cls-9" x="12.66" width="15.32" height="17.58"/></g></g></g></g></g></g><g class="cls-21"><g class="cls-4"><g class="cls-5"><g class="cls-22"><g class="cls-23"><g class="cls-22"><rect class="cls-9" x="17.58" y="6.51" width="15.07" height="16.08"/></g></g></g></g></g></g><g class="cls-24"><g class="cls-4"><g class="cls-5"><g class="cls-25"><g class="cls-26"><g class="cls-27"><rect class="cls-9" x="35.06" y="8.48" width="25.54" height="21.8"/></g></g></g></g></g></g><g class="cls-28"><g class="cls-4"><g class="cls-5"><g class="cls-29"><g class="cls-30"><g class="cls-29"><rect class="cls-9" x="36.37" width="15.32" height="17.58"/></g></g></g></g></g></g><g class="cls-31"><g class="cls-4"><g class="cls-5"><g class="cls-32"><g class="cls-33"><g class="cls-34"><rect class="cls-9" x="31" y="6.51" width="14.83" height="16.08"/></g></g></g></g></g></g><g class="cls-35"><g class="cls-4"><g class="cls-5"><g class="cls-36"><g class="cls-37"><g class="cls-38"><rect class="cls-9" x="43.66" width="15.32" height="17.58"/></g></g></g></g></g></g><g class="cls-39"><g class="cls-4"><g class="cls-5"><g class="cls-40"><g class="cls-41"><g class="cls-40"><rect class="cls-9" x="48.58" y="6.51" width="15.07" height="16.08"/></g></g></g></g></g></g><g class="cls-42"><g class="cls-4"><g class="cls-5"><g class="cls-43"><g class="cls-44"><g class="cls-45"><rect class="cls-9" x="66.06" y="8.48" width="25.54" height="21.8"/></g></g></g></g></g></g><g class="cls-46"><g class="cls-4"><g class="cls-5"><g class="cls-47"><g class="cls-48"><g class="cls-47"><rect class="cls-9" x="67.37" width="15.32" height="17.58"/></g></g></g></g></g></g><g class="cls-49"><g class="cls-4"><g class="cls-5"><g class="cls-50"><g class="cls-51"><g class="cls-52"><rect class="cls-9" x="62" y="6.51" width="14.83" height="16.08"/></g></g></g></g></g></g><g class="cls-53"><g class="cls-4"><g class="cls-5"><g class="cls-54"><g class="cls-55"><g class="cls-56"><rect class="cls-9" x="74.66" width="15.32" height="17.58"/></g></g></g></g></g></g><g class="cls-57"><g class="cls-4"><g class="cls-5"><g class="cls-58"><g class="cls-59"><g class="cls-58"><rect class="cls-9" x="79.58" y="6.51" width="15.07" height="16.08"/></g></g></g></g></g></g><g class="cls-60"><g class="cls-4"><g class="cls-5"><g class="cls-61"><g class="cls-62"><g class="cls-63"><rect class="cls-9" x="97.06" y="8.48" width="25.54" height="21.8"/></g></g></g></g></g></g><g class="cls-64"><g class="cls-4"><g class="cls-5"><g class="cls-65"><g class="cls-66"><g class="cls-65"><rect class="cls-9" x="98.37" width="15.32" height="17.58"/></g></g></g></g></g></g><g class="cls-67"><g class="cls-4"><g class="cls-5"><g class="cls-68"><g class="cls-69"><g class="cls-70"><rect class="cls-9" x="93" y="6.51" width="14.83" height="16.08"/></g></g></g></g></g></g><g class="cls-71"><g class="cls-4"><g class="cls-5"><g class="cls-72"><g class="cls-73"><g class="cls-74"><rect class="cls-9" x="105.66" width="15.32" height="17.58"/></g></g></g></g></g></g><g class="cls-75"><g class="cls-4"><g class="cls-5"><g class="cls-76"><g class="cls-77"><g class="cls-76"><rect class="cls-9" x="110.58" y="6.51" width="15.07" height="16.08"/></g></g></g></g></g></g><g class="cls-78"><g class="cls-4"><g class="cls-5"><g class="cls-79"><g class="cls-80"><g class="cls-81"><rect class="cls-9" x="128.06" y="8.48" width="25.54" height="21.8"/></g></g></g></g></g></g><g class="cls-82"><g class="cls-4"><g class="cls-5"><g class="cls-83"><g class="cls-84"><g class="cls-83"><rect class="cls-9" x="129.37" width="15.32" height="17.58"/></g></g></g></g></g></g><g class="cls-85"><g class="cls-4"><g class="cls-5"><g class="cls-86"><g class="cls-87"><g class="cls-88"><rect class="cls-9" x="124" y="6.51" width="14.83" height="16.08"/></g></g></g></g></g></g><g class="cls-89"><g class="cls-4"><g class="cls-5"><g class="cls-90"><g class="cls-91"><g class="cls-92"><rect class="cls-9" x="136.66" width="15.32" height="17.58"/></g></g></g></g></g></g><g class="cls-93"><g class="cls-4"><g class="cls-5"><g class="cls-94"><g class="cls-95"><g class="cls-94"><rect class="cls-9" x="141.58" y="6.51" width="15.07" height="16.08"/></g></g></g></g></g></g></svg>