<svg id="Calque_1" data-name="Calque 1" xmlns="http://www.w3.org/2000/svg" xmlns:xlink="http://www.w3.org/1999/xlink" viewBox="0 0 43 45"><defs><style>.cls-1,.cls-16,.cls-17,.cls-2,.cls-3,.cls-9{fill:none;}.cls-1{clip-rule:evenodd;}.cls-3{fill-rule:evenodd;}.cls-4{clip-path:url(#clip-path);}.cls-5{clip-path:url(#clip-path-2);}.cls-6{fill:#eb6543;}.cls-7{clip-path:url(#clip-path-3);}.cls-8{fill:#fefefe;}.cls-16,.cls-17,.cls-9{stroke:#20284d;}.cls-9{stroke-miterlimit:10;}.cls-16,.cls-9{stroke-width:2px;}.cls-10{clip-path:url(#clip-path-6);}.cls-11{fill:#20284d;}.cls-12{clip-path:url(#clip-path-8);}.cls-13{clip-path:url(#clip-path-10);}.cls-14{clip-path:url(#clip-path-14);}.cls-15{fill:#fff;}.cls-16,.cls-17{stroke-linecap:round;stroke-linejoin:round;}.cls-17{stroke-width:1.5px;}</style><clipPath id="clip-path" transform="translate(5 4.11)"><path class="cls-1" d="M16.5,3h0A16.43,16.43,0,1,1,0,19.46,16.47,16.47,0,0,1,16.5,3"/></clipPath><clipPath id="clip-path-2" transform="translate(5 4.11)"><rect class="cls-2" x="-1" y="-0.11" width="35" height="36"/></clipPath><clipPath id="clip-path-3" transform="translate(5 4.11)"><path class="cls-1" d="M16.5.89h0A16.43,16.43,0,1,1,0,17.32,16.47,16.47,0,0,1,16.5.89"/></clipPath><clipPath id="clip-path-6" transform="translate(5 4.11)"><path class="cls-1" d="M27.22,21,23.65,10.88a1.14,1.14,0,0,0-1.49-.62,1.17,1.17,0,0,0-.62.62L18,21a1.06,1.06,0,0,0,2,.7l.78-2.2h3.7l.77,2.2a1.07,1.07,0,0,0,1.39.57A1.05,1.05,0,0,0,27.22,21Zm-5.73-3.6,1.11-3.14,1.11,3.14Z"/></clipPath><clipPath id="clip-path-8" transform="translate(5 4.11)"><path class="cls-1" d="M17.18,21.34l-2.46-7.1a.79.79,0,0,0-1.46,0l-2.46,7.1a.75.75,0,0,0,.45.94.74.74,0,0,0,.93-.45l.53-1.55h2.56l.53,1.55a.73.73,0,0,0,.93.45.75.75,0,0,0,.45-.94Zm-4-2.53L14,16.6l.76,2.21Z"/></clipPath><clipPath id="clip-path-10" transform="translate(5 4.11)"><path class="cls-1" d="M9.3,21.68,7.66,16.93a.52.52,0,0,0-1,0L5,21.68a.5.5,0,0,0,.33.62A.48.48,0,0,0,6,22l.36-1H8l.36,1a.48.48,0,0,0,.63.27.5.5,0,0,0,.29-.6ZM6.66,20l.51-1.48L7.68,20Z"/></clipPath><clipPath id="clip-path-14" transform="translate(5 4.11)"><path class="cls-1" d="M16.14.89h0A16.07,16.07,0,1,1,0,17,16.1,16.1,0,0,1,16.14.89Z"/></clipPath></defs><title>ACCESS_TAILLE_POLICE</title><g class="cls-4"><g class="cls-5"><rect class="cls-6" y="2.14" width="43" height="42.86"/></g></g><g class="cls-7"><g class="cls-5"><rect class="cls-8" width="43" height="42.86"/></g></g><g class="cls-5"><path class="cls-9" d="M16.14.89h0A16.07,16.07,0,1,1,0,17,16.1,16.1,0,0,1,16.14.89Z" transform="translate(5 4.11)"/></g><g class="cls-10"><g class="cls-5"><rect class="cls-11" x="17.93" y="9.29" width="19.33" height="22.14"/></g></g><g class="cls-12"><g class="cls-5"><rect class="cls-11" x="10.76" y="12.86" width="16.46" height="18.57"/></g></g><g class="cls-13"><g class="cls-5"><rect class="cls-11" x="5.02" y="15.71" width="14.3" height="15.71"/></g></g><g class="cls-4"><g class="cls-5"><rect class="cls-6" y="2.14" width="43" height="42.86"/></g></g><g class="cls-14"><g class="cls-5"><rect class="cls-15" width="42.28" height="42.14"/></g></g><g class="cls-5"><path class="cls-9" d="M16.14.89h0A16.07,16.07,0,1,1,0,17,16.1,16.1,0,0,1,16.14.89Z" transform="translate(5 4.11)"/></g><g class="cls-10"><g class="cls-5"><rect class="cls-11" x="17.93" y="9.29" width="19.33" height="22.14"/></g></g><g class="cls-5"><polyline class="cls-16" points="15.76 25.46 18.58 17.86 21.24 25.46"/><line class="cls-16" x1="20.37" y1="23.09" x2="16.83" y2="23.09"/><polyline class="cls-17" points="10.02 25.71 11.87 20 13.61 25.71"/><line class="cls-17" x1="12.89" y1="23.93" x2="10.74" y2="23.93"/></g></svg>