<svg id="Calque_1" data-name="Calque 1" xmlns="http://www.w3.org/2000/svg" xmlns:xlink="http://www.w3.org/1999/xlink" viewBox="0 0 41 45"><defs><style>.cls-1,.cls-2,.cls-8,.cls-9{fill:none;}.cls-2{clip-rule:evenodd;}.cls-3{clip-path:url(#clip-path);}.cls-4{clip-path:url(#clip-path-2);}.cls-5{fill:#eb6543;}.cls-6{clip-path:url(#clip-path-3);}.cls-7{fill:#fff;}.cls-8,.cls-9{stroke:#20284d;stroke-miterlimit:10;stroke-width:2px;}.cls-9{stroke-linecap:round;}.cls-10{clip-path:url(#clip-path-6);}.cls-11{fill:#20284d;}.cls-12{clip-path:url(#clip-path-8);}</style><clipPath id="clip-path" transform="translate(4 4.11)"><ellipse class="cls-1" cx="16.5" cy="19.46" rx="15.5" ry="16.43"/></clipPath><clipPath id="clip-path-2" transform="translate(4 4.11)"><rect class="cls-1" y="-0.11" width="33" height="36"/></clipPath><clipPath id="clip-path-3" transform="translate(4 4.11)"><path class="cls-2" d="M16.84.89h0C25.21.89,32,8.09,32,17S25.21,33,16.84,33,1.67,25.84,1.67,17,8.46.89,16.84.89Z"/></clipPath><clipPath id="clip-path-6" transform="translate(4 4.11)"><path class="cls-2" d="M10.49,9.46H21.84a1.42,1.42,0,0,1,1.4,1.43h0a1.42,1.42,0,0,1-1.4,1.43H10.49a1.41,1.41,0,0,1-1.4-1.43h0a1.41,1.41,0,0,1,1.4-1.43"/></clipPath><clipPath id="clip-path-8" transform="translate(4 4.11)"><path class="cls-2" d="M17.85,12.42v7.65A1.45,1.45,0,0,1,16.5,21.6h0a1.45,1.45,0,0,1-1.35-1.53V12.42a1.45,1.45,0,0,1,1.35-1.53h0a1.45,1.45,0,0,1,1.35,1.53"/></clipPath></defs><title>ACCESS_ESPACEMENT_POLICE</title><g class="cls-3"><g class="cls-4"><rect class="cls-5" y="2.14" width="41" height="42.86"/></g></g><g class="cls-6"><g class="cls-4"><rect class="cls-7" x="0.67" width="40.33" height="42.14"/></g></g><g class="cls-4"><path class="cls-8" d="M16.84.89h0C25.21.89,32,8.09,32,17S25.21,33,16.84,33,1.67,25.84,1.67,17,8.46.89,16.84.89Z" transform="translate(4 4.11)"/><line class="cls-9" x1="13.09" y1="28.21" x2="27.91" y2="28.21"/><line class="cls-9" x1="13.09" y1="28.57" x2="15.11" y2="25.71"/><line class="cls-9" x1="15.11" y1="31.43" x2="13.09" y2="28.57"/><line class="cls-9" x1="27.91" y1="28.57" x2="25.89" y2="31.43"/><line class="cls-9" x1="25.89" y1="25.71" x2="27.91" y2="28.57"/></g><g class="cls-10"><g class="cls-4"><rect class="cls-11" x="8.09" y="8.57" width="24.15" height="12.86"/></g></g><g class="cls-12"><g class="cls-4"><rect class="cls-11" x="14.15" y="10" width="12.7" height="20.71"/></g></g></svg>