<svg id="Calque_1" data-name="Calque 1" xmlns="http://www.w3.org/2000/svg" xmlns:xlink="http://www.w3.org/1999/xlink" viewBox="0 0 43.47 45.7"><defs><style>.cls-1,.cls-11,.cls-2{fill:none;}.cls-2{clip-rule:evenodd;}.cls-3{clip-path:url(#clip-path);}.cls-4{clip-path:url(#clip-path-2);}.cls-5{isolation:isolate;}.cls-6{clip-path:url(#clip-path-3);}.cls-7{clip-path:url(#clip-path-4);}.cls-8{fill:#eb6543;}.cls-9{clip-path:url(#clip-path-6);}.cls-10{fill:#fff;}.cls-11{stroke:#20284d;stroke-miterlimit:10;stroke-width:2px;}.cls-12{clip-path:url(#clip-path-9);}.cls-13{fill:#20284d;}</style><clipPath id="clip-path" transform="translate(4.86 5.11)"><rect class="cls-1" x="0.14" y="2.29" width="33.47" height="33.31"/></clipPath><clipPath id="clip-path-2" transform="translate(4.86 5.11)"><rect class="cls-1" x="-1" y="-1.11" width="36" height="38"/></clipPath><clipPath id="clip-path-3" transform="translate(4.86 5.11)"><rect class="cls-1" y="1.89" width="34" height="34"/></clipPath><clipPath id="clip-path-4" transform="translate(4.86 5.11)"><path class="cls-2" d="M16.87,2.29h0A16.65,16.65,0,1,1,.14,18.94,16.69,16.69,0,0,1,16.87,2.29"/></clipPath><clipPath id="clip-path-6" transform="translate(4.86 5.11)"><path class="cls-2" d="M17-.11h0A16.2,16.2,0,1,1,.72,16.09,16.24,16.24,0,0,1,17-.11Z"/></clipPath><clipPath id="clip-path-9" transform="translate(4.86 5.11)"><path class="cls-2" d="M17.33,27.25H14.25a.9.9,0,0,1-.93-.86V26.1a.9.9,0,0,1,.93-.86h3.08a6.35,6.35,0,0,0,6.55-6.11A6.35,6.35,0,0,0,17.33,13H11.64l3.92,3.65a1,1,0,0,1,0,1.43,1.1,1.1,0,0,1-.76.28A1.14,1.14,0,0,1,14,18.1L8.27,12.73a1,1,0,0,1,0-1.43L14,5.93a1.14,1.14,0,0,1,.77-.28,1.1,1.1,0,0,1,.76.28,1,1,0,0,1,0,1.43L11.64,11h5.69c4.8,0,8.71,3.64,8.71,8.12s-3.91,8.12-8.71,8.12"/></clipPath></defs><title>ACCESS_RESET</title><g class="cls-3"><g class="cls-4"><g class="cls-5"><g class="cls-6"><g class="cls-7"><g class="cls-6"><rect class="cls-8" y="2.4" width="43.47" height="43.31"/></g></g></g></g></g></g><g class="cls-9"><g class="cls-4"><rect class="cls-10" x="0.58" width="42.55" height="42.4"/></g></g><g class="cls-4"><path class="cls-11" d="M17-.11h0A16.2,16.2,0,1,1,.72,16.09,16.24,16.24,0,0,1,17-.11Z" transform="translate(4.86 5.11)"/></g><g class="cls-12"><g class="cls-4"><rect class="cls-13" x="7.82" y="5.76" width="28.09" height="31.6"/></g></g></svg>