<svg id="Calque_1" data-name="Calque 1" xmlns="http://www.w3.org/2000/svg" xmlns:xlink="http://www.w3.org/1999/xlink" viewBox="0 0 42 45"><defs><style>.cls-1,.cls-2,.cls-8,.cls-9{fill:none;}.cls-1{clip-rule:evenodd;}.cls-3{clip-path:url(#clip-path);}.cls-4{clip-path:url(#clip-path-2);}.cls-5{fill:#eb6543;}.cls-6{clip-path:url(#clip-path-3);}.cls-7{fill:#fff;}.cls-8,.cls-9{stroke:#20284d;stroke-width:2px;}.cls-8{stroke-miterlimit:10;}.cls-9{stroke-linejoin:round;}.cls-10{clip-path:url(#clip-path-6);}.cls-11{fill:#fefefe;}.cls-12{clip-path:url(#clip-path-9);}.cls-13{clip-path:url(#clip-path-12);}.cls-14{clip-path:url(#clip-path-15);}</style><clipPath id="clip-path" transform="translate(4 4)"><path class="cls-1" d="M17,3.8h0A16.1,16.1,0,1,1,1,19.9,16,16,0,0,1,17,3.8"/></clipPath><clipPath id="clip-path-2" transform="translate(4 4)"><rect class="cls-2" width="34" height="36"/></clipPath><clipPath id="clip-path-3" transform="translate(4 4)"><path class="cls-1" d="M17.35,1h0A15.75,15.75,0,1,1,1.7,16.75,15.7,15.7,0,0,1,17.35,1Z"/></clipPath><clipPath id="clip-path-6" transform="translate(4 4)"><path class="cls-1" d="M17,19.2h0A2.8,2.8,0,1,1,14.22,22,2.78,2.78,0,0,1,17,19.2"/></clipPath><clipPath id="clip-path-9" transform="translate(4 4)"><path class="cls-1" d="M17,7.3h0a3.5,3.5,0,1,1-3.48,3.5A3.49,3.49,0,0,1,17,7.3"/></clipPath><clipPath id="clip-path-12" transform="translate(4 4)"><path class="cls-1" d="M9.35,19.2h0A2.8,2.8,0,1,1,6.57,22a2.79,2.79,0,0,1,2.78-2.8"/></clipPath><clipPath id="clip-path-15" transform="translate(4 4)"><path class="cls-1" d="M24.65,19.2h0A2.8,2.8,0,1,1,21.87,22a2.78,2.78,0,0,1,2.78-2.8"/></clipPath></defs><title>ACCESS_ARBORESCENCE</title><g class="cls-3"><g class="cls-4"><rect class="cls-5" y="2.8" width="42" height="42.2"/></g></g><g class="cls-6"><g class="cls-4"><rect class="cls-7" x="0.7" width="41.3" height="41.5"/></g></g><g class="cls-4"><path class="cls-8" d="M17.35,1h0A15.75,15.75,0,1,1,1.7,16.75,15.7,15.7,0,0,1,17.35,1Z" transform="translate(4 4)"/><line class="cls-8" x1="21.35" y1="17.6" x2="21.35" y2="24.6"/><path class="cls-9" d="M24.65,20.6V16.4s-15.11.1-15.24,0,0,4.2,0,4.2" transform="translate(4 4)"/></g><g class="cls-10"><g class="cls-4"><rect class="cls-11" x="13.22" y="18.2" width="15.57" height="15.6"/></g></g><g class="cls-4"><path class="cls-8" d="M17,19.9h0A2.1,2.1,0,1,1,14.91,22,2.1,2.1,0,0,1,17,19.9Z" transform="translate(4 4)"/></g><g class="cls-12"><g class="cls-4"><rect class="cls-11" x="12.52" y="6.3" width="16.96" height="17"/></g></g><g class="cls-4"><path class="cls-8" d="M17,8h0a2.8,2.8,0,1,1-2.78,2.8A2.78,2.78,0,0,1,17,8Z" transform="translate(4 4)"/></g><g class="cls-13"><g class="cls-4"><rect class="cls-11" x="5.57" y="18.2" width="15.57" height="15.6"/></g></g><g class="cls-4"><path class="cls-8" d="M9.35,19.9h0A2.1,2.1,0,1,1,7.26,22,2.09,2.09,0,0,1,9.35,19.9Z" transform="translate(4 4)"/></g><g class="cls-14"><g class="cls-4"><rect class="cls-11" x="20.87" y="18.2" width="15.57" height="15.6"/></g></g><g class="cls-4"><path class="cls-8" d="M24.65,19.9h0A2.1,2.1,0,1,1,22.57,22,2.1,2.1,0,0,1,24.65,19.9Z" transform="translate(4 4)"/></g></svg>