<svg id="Calque_1" data-name="Calque 1" xmlns="http://www.w3.org/2000/svg" xmlns:xlink="http://www.w3.org/1999/xlink" viewBox="0 0 42 45"><defs><style>.cls-1,.cls-2,.cls-8{fill:none;}.cls-1{clip-rule:evenodd;}.cls-3{clip-path:url(#clip-path);}.cls-4{clip-path:url(#clip-path-2);}.cls-5{fill:#eb6543;}.cls-6{clip-path:url(#clip-path-3);}.cls-7{fill:#fff;}.cls-8{stroke:#20284d;stroke-miterlimit:10;stroke-width:2px;}.cls-9{clip-path:url(#clip-path-6);}.cls-10{fill:#20284d;}</style><clipPath id="clip-path" transform="translate(4 4.11)"><path class="cls-1" d="M17,3.69h0A16.1,16.1,0,1,1,1,19.79,16,16,0,0,1,17,3.69"/></clipPath><clipPath id="clip-path-2" transform="translate(4 4.11)"><rect class="cls-2" y="-0.11" width="34" height="36"/></clipPath><clipPath id="clip-path-3" transform="translate(4 4.11)"><path class="cls-1" d="M17.35.89h0A15.75,15.75,0,1,1,1.7,16.64,15.7,15.7,0,0,1,17.35.89Z"/></clipPath><clipPath id="clip-path-6" transform="translate(4 4.11)"><path class="cls-1" d="M17,.89h0A16.12,16.12,0,0,1,28.31,28.37,15.86,15.86,0,0,1,17,33.09Z"/></clipPath></defs><title>ACCESS_CONTRASTE</title><g class="cls-3"><g class="cls-4"><rect class="cls-5" y="2.8" width="42" height="42.2"/></g></g><g class="cls-6"><g class="cls-4"><rect class="cls-7" x="0.7" width="41.3" height="41.5"/></g></g><g class="cls-4"><path class="cls-8" d="M17.35.89h0A15.75,15.75,0,1,1,1.7,16.64,15.7,15.7,0,0,1,17.35.89Z" transform="translate(4 4.11)"/></g><g class="cls-9"><g class="cls-4"><rect class="cls-10" x="16" width="26" height="42.2"/></g></g></svg>