<svg id="Calque_1" data-name="Calque 1" xmlns="http://www.w3.org/2000/svg" xmlns:xlink="http://www.w3.org/1999/xlink" viewBox="0 0 71.19 75.12"><defs><style>.cls-1,.cls-2,.cls-4{fill:none;}.cls-2{clip-rule:evenodd;}.cls-3{clip-path:url(#clip-path);}.cls-4{stroke:#20294c;stroke-miterlimit:10;stroke-width:3px;}.cls-5{clip-path:url(#clip-path-2);}.cls-6{isolation:isolate;}.cls-7{clip-path:url(#clip-path-4);}.cls-8{clip-path:url(#clip-path-5);}.cls-9{fill:#20294d;}</style><clipPath id="clip-path" transform="translate(-0.18 -0.7)"><rect class="cls-1" width="72" height="76"/></clipPath><clipPath id="clip-path-2" transform="translate(-0.18 -0.7)"><path class="cls-2" d="M36.27,28.61a3.7,3.7,0,0,0-2.43,0c-1.07.49-2.29,2.84-3.36,3.73A6.14,6.14,0,0,0,27.7,37.2c-.26,2.39,7.79,4.19,8.57,3.57.79.62,8.83-1.18,8.59-3.57a6.15,6.15,0,0,0-2.8-4.86c-1.06-.89-2.29-3.24-3.35-3.73a2.75,2.75,0,0,0-1.11-.22A4.38,4.38,0,0,0,36.27,28.61Zm-10.7-2.5c-1.44.31-2.28,2.08-1.86,4s1.92,3.15,3.36,2.84,2.28-2.09,1.86-4A3.36,3.36,0,0,0,26,26.06,1.61,1.61,0,0,0,25.57,26.11Zm18,2.83c-.41,1.88.42,3.66,1.86,4s3-1,3.37-2.84-.42-3.65-1.86-4a1.7,1.7,0,0,0-.44-.05A3.38,3.38,0,0,0,43.61,28.94Zm-12.4-9.48c-1.71.37-2.7,2.44-2.21,4.63s2.25,3.66,4,3.29,2.7-2.44,2.21-4.63c-.43-2-1.9-3.35-3.43-3.34A2.29,2.29,0,0,0,31.21,19.46Zm6.17,3.29c-.48,2.19.51,4.26,2.21,4.63s3.48-1.11,4-3.29-.51-4.26-2.21-4.63a2.32,2.32,0,0,0-.53-.05C39.29,19.41,37.82,20.79,37.38,22.75Z"/></clipPath><clipPath id="clip-path-4" transform="translate(-0.18 -0.7)"><rect class="cls-1" x="18" y="14" width="36" height="32"/></clipPath><clipPath id="clip-path-5" transform="translate(-0.18 -0.7)"><rect class="cls-1" x="23" y="19" width="27" height="23"/></clipPath></defs><title>ICONE_MAIL</title><g class="cls-3"><path class="cls-4" d="M57.08,20.09C61,23.22,64.48,26,65,26.28A10.29,10.29,0,0,1,69.86,35V64a10.3,10.3,0,0,1-10.3,10.3H12A10.3,10.3,0,0,1,1.68,64V35a10.27,10.27,0,0,1,4.89-8.75c.49-.31,3.95-3.06,7.89-6.21" transform="translate(-0.18 -0.7)"/><line class="cls-4" x1="69.69" y1="34.33" x2="9.47" y2="73.34"/><line class="cls-4" x1="38.28" y1="54.67" x2="1.5" y2="34.33"/><path class="cls-4" d="M14.46,42.1V8.3a6.12,6.12,0,0,1,6.12-6.1H51a6.12,6.12,0,0,1,6.12,6.1v35" transform="translate(-0.18 -0.7)"/></g><g class="cls-5"><g class="cls-3"><g class="cls-6"><g class="cls-7"><g class="cls-8"><rect class="cls-9" x="18.43" y="13.7" width="35.34" height="31.49"/></g></g></g></g></g></svg>